<?xml version="1.0" encoding="UTF-8"?>
<svg width="36px" height="36px" viewBox="0 0 36 36" version="1.1" xmlns="http://www.w3.org/2000/svg" xmlns:xlink="http://www.w3.org/1999/xlink">
    <title>导航/logo-子产品</title>
    <g id="导航/logo-子产品" stroke="none" stroke-width="1" fill="none" fill-rule="evenodd">
        <g id="编组备份" transform="translate(4.000000, 6.000000)">
            <path d="M23.8412666,18.006979 L18.4615666,18.006979 C18.2463666,18.006979 18.1028666,17.935279 18.0311666,17.720079 L14.0717002,10.8849975 L10.9156002,5.4335275 C10.8439002,5.2900675 10.8439002,5.0748775 10.9156002,4.9314175 L13.6413002,0.2689875 C13.8565002,-0.0896625 14.3586002,-0.0896625 14.5021002,0.2689875 L17.3713002,5.2183375 L24.3433666,17.217979 C24.4868666,17.576679 24.1999666,18.006979 23.8412666,18.006979 Z" id="路径" fill="#15D296" fill-rule="nonzero"></path>
            <path d="M27.4852002,24 L0.514799209,24 C0.0844200089,24 -0.130769791,23.5727776 0.0844200089,23.2166431 L9.57116144,6.87235825 C9.78636144,6.5162734 10.2884614,6.5162734 10.4319614,6.87235825 L13.1576614,11.5014911 C13.2293614,11.6438655 13.2293614,11.8575263 13.1576614,12 L9.51846175,19.006572 L24.8686417,19.006572 C25.0838417,19.006572 25.2272417,19.0777591 25.2990417,19.29142 L27.9156002,23.2878303 C28.1308002,23.5727776 27.9156002,24 27.4852002,24 Z" id="路径" fill="#1C6EFF"></path>
        </g>
    </g>
</svg>