<?xml version="1.0" encoding="UTF-8"?>
<svg width="24px" height="24px" viewBox="0 0 24 24" version="1.1" xmlns="http://www.w3.org/2000/svg" xmlns:xlink="http://www.w3.org/1999/xlink">
    <title>2 布局/2.3 导航菜单/顶部导航-白/头像</title>
    <defs>
        <linearGradient x1="50%" y1="0%" x2="50%" y2="100%" id="linearGradient-1">
            <stop stop-color="#5090FF" offset="0%"></stop>
            <stop stop-color="#3880FF" offset="100%"></stop>
        </linearGradient>
    </defs>
    <g id="2-布局/2.3-导航菜单/顶部导航-白/头像" stroke="none" stroke-width="1" fill="none" fill-rule="evenodd">
        <circle id="蒙版" fill="url(#linearGradient-1)" fill-rule="nonzero" cx="12" cy="12" r="12"></circle>
        <path d="M12,5.002857 C14.8403216,5.002857 17.1428571,7.30539257 17.1428571,10.1457141 C17.1428571,12.1581088 15.9870174,13.9005426 14.3029914,14.745362 C16.4799279,15.3500372 18.3082477,16.7937071 19.418308,18.7060705 C17.5874322,20.7294608 14.9420912,22 12,22 C9.05742375,22 6.41169567,20.7290419 4.58182208,18.706132 L4.48296853,18.8807493 C5.58158463,16.8817186 7.45430442,15.3683093 9.69741231,14.7442382 C8.01298262,13.9005426 6.85714286,12.1581088 6.85714286,10.1457141 C6.85714286,7.30539257 9.15967843,5.002857 12,5.002857 Z" id="路径" fill="#FFFFFF" fill-rule="nonzero"></path>
        <path d="M10.7142857,10.3600004 C11.0693259,10.3600004 11.3571429,10.6478174 11.3571429,11.0028576 C11.3571429,11.1722883 11.3788378,11.3382584 11.421198,11.4982493 C11.5777535,12.0895454 12.0112731,12.5745395 12.5797142,12.7982981 C12.7577286,12.8683709 12.9456951,12.911531 13.1394131,12.9259922 L13.2857143,12.931429 C13.6407545,12.931429 13.9285714,13.219246 13.9285714,13.5742862 C13.9285714,13.9293263 13.6407545,14.2171433 13.2857143,14.2171433 C12.8784501,14.2171433 12.4806846,14.1410551 12.1087829,13.9946614 C11.1606384,13.6214378 10.4398229,12.8150354 10.17831,11.8273247 C10.107581,11.5601875 10.0714286,11.2836148 10.0714286,11.0028576 C10.0714286,10.6478174 10.3592455,10.3600004 10.7142857,10.3600004 Z" id="路径备份-2" fill="#28CD98" fill-rule="nonzero" transform="translate(12.000000, 12.288572) rotate(-45.000000) translate(-12.000000, -12.288572) "></path>
    </g>
</svg>