<svg xmlns="http://www.w3.org/2000/svg" xmlns:xlink="http://www.w3.org/1999/xlink" fill="none" version="1.1" width="16" height="16" viewBox="0 0 16 16"><defs><linearGradient x1="1" y1="0.6596809029579163" x2="0" y2="0.6596809029579163" id="master_svg0_3778_015361"><stop offset="4.04760055243969%" stop-color="#D9E2F3" stop-opacity="1"/><stop offset="100.00003576278687%" stop-color="#7F8BA0" stop-opacity="1"/></linearGradient></defs><g style="mix-blend-mode:passthrough"><g style="mix-blend-mode:passthrough"><path d="M12.238199523162843,10.824009523162841L14.808299523162841,13.394099523162842C14.886399523162842,13.472199523162843,14.886399523162842,13.598899523162842,14.808299523162841,13.676999523162841L13.676999523162841,14.808299523162841C13.598899523162842,14.886399523162842,13.472199523162843,14.886399523162842,13.394099523162842,14.808299523162841L10.824009523162841,12.238199523162843C9.771979523162841,12.997099523162841,8.50509952316284,13.407099523162842,7.202619523162841,13.405199523162842C3.778769523162842,13.405199523162842,0.9999995231628418,10.626459523162842,0.9999995231628418,7.202619523162841C0.9999995231628418,3.778769523162842,3.778769523162842,0.9999995231628418,7.202619523162841,0.9999995231628418C10.626459523162842,0.9999995231628418,13.405199523162842,3.778769523162842,13.405199523162842,7.202619523162841C13.407099523162842,8.50509952316284,12.997099523162841,9.771979523162841,12.238199523162843,10.824009523162841ZM8.013569523162841,4.567609523162842C7.425529523162842,4.386789523162841,6.7938795231628415,4.407869523162842,6.219189523162842,4.627509523162842C5.644209523162842,4.847259523162842,5.159309523162841,5.253139523162842,4.841759523162842,5.7804595231628415C4.5242195231628415,6.3077695231628415,4.392299523162842,6.9261995231628415,4.467019523162842,7.537199523162842C4.541739523162842,8.148169523162842,4.818799523162841,8.716609523162841,5.254059523162842,9.151899523162841C5.689319523162842,9.587109523162841,6.257729523162841,9.864159523162842,6.868729523162842,9.938939523162842C7.479719523162842,10.013649523162842,8.098139523162843,9.881739523162842,8.62549952316284,9.564159523162841C9.152789523162841,9.246589523162841,9.558649523162842,8.761749523162841,9.778429523162842,8.186699523162842C9.998139523162841,7.611749523162842,10.019159523162841,6.979749523162842,9.838039523162841,6.391449523162842C9.746109523162842,6.594559523162842,9.606339523162841,6.772339523162842,9.430599523162842,6.909549523162842C9.254929523162842,7.046749523162842,9.048519523162842,7.139289523162842,8.829219523162841,7.179229523162841C8.60991952316284,7.219169523162842,8.384149523162842,7.205309523162842,8.171329523162843,7.138839523162842C7.958579523162842,7.072389523162842,7.765059523162842,6.955299523162842,7.6074595231628415,6.797629523162842C7.449849523162841,6.639969523162842,7.332829523162842,6.446419523162842,7.266449523162842,6.233599523162842C7.200069523162842,6.020779523162842,7.186299523162842,5.795039523162842,7.226319523162842,5.575729523162842C7.266339523162841,5.356419523162842,7.3589595231628415,5.150079523162842,7.4962295231628415,4.974419523162842C7.633299523162842,4.799029523162842,7.810809523162842,4.6594495231628414,8.013569523162841,4.567609523162842Z" fill-rule="evenodd" fill="url(#master_svg0_3778_015361)" fill-opacity="1"/></g></g></svg>