<svg xmlns="http://www.w3.org/2000/svg" xmlns:xlink="http://www.w3.org/1999/xlink" fill="none" version="1.1" width="16" height="16" viewBox="0 0 16 16"><defs><linearGradient x1="1" y1="0.6596809029579163" x2="0" y2="0.6596809029579163" id="master_svg0_3782_015631"><stop offset="4.04760055243969%" stop-color="#D9E2F3" stop-opacity="1"/><stop offset="100.00003576278687%" stop-color="#7F8BA0" stop-opacity="1"/></linearGradient></defs><g style="mix-blend-mode:passthrough"><g style="mix-blend-mode:passthrough"><path d="M7.36363,1C5.35532,1,3.72727,2.6714700000000002,3.72727,4.7333300000000005C3.72727,6.7952,5.35532,8.46667,7.36363,8.46667C9.37193,8.46667,10.99999,6.7952,10.99999,4.7333300000000005C10.99999,2.6714700000000002,9.37193,1,7.36363,1ZM9.51745,11.3797C9.36594,11.3797,9.26945,11.2178,9.34155,11.0845L11.3978,7.2845C11.4328,7.21992,11.5003,7.17969,11.5737,7.17969L14.7226,7.17969C14.8812,7.17969,14.9767,7.35555,14.8903,7.48861L13.4733,9.67077C13.3869,9.80382,13.4824,9.97969,13.6411,9.97969L15.4586,9.97969C15.6444,9.97969,15.7298,10.21089,15.5886,10.33166L11.0441,14.2197C10.89402,14.3481,10.66844,14.2044,10.7214,14.0142L11.384,11.6333C11.4194,11.5058,11.3236,11.3797,11.1913,11.3797L9.51745,11.3797ZM1.272727,15C1.122104,15,1,14.8746,1,14.72L1,13.1333C1,11.0715,2.62805,9.4,4.63636,9.4L8.5,9.4L6.66507,12.7029C6.59101,12.8362,6.68741,13,6.8399,13L8.8,13C8.91046,13,9,13.0895,9,13.2L9,14.8C9,14.9105,8.91094,15,8.80048,15L1.272727,15Z" fill-rule="evenodd" fill="url(#master_svg0_3782_015631)" fill-opacity="1"/></g></g></svg>