<svg xmlns="http://www.w3.org/2000/svg" xmlns:xlink="http://www.w3.org/1999/xlink" fill="none" version="1.1" width="16" height="16" viewBox="0 0 16 16"><defs><linearGradient x1="1" y1="0.5" x2="0" y2="0.5" id="master_svg0_3784_034506"><stop offset="0.00022888184503244702%" stop-color="#4BFFC6" stop-opacity="1"/><stop offset="99.72267150878906%" stop-color="#1C6EFF" stop-opacity="1"/></linearGradient></defs><g style="mix-blend-mode:passthrough"><g style="mix-blend-mode:passthrough"><path d="M2.5220000000000002,1.88383390625L8,0.66650390625L13.478,1.88383390625C13.6261,1.91674390625,13.7585,1.99915390625,13.8533,2.11743390625C13.9483,2.23573390625,14,2.3828539062500003,14,2.5345039062500003L14,9.19250390625C13.9999,9.85097390625,13.8373,10.49930390625,13.5266,11.07980390625C13.2159,11.66040390625,12.7666,12.15520390625,12.2187,12.52050390625L8,15.33320390625L3.78133,12.52050390625C3.23351,12.15530390625,2.784307,11.66060390625,2.473565,11.08020390625C2.162824,10.49970390625,2.000157571,9.85157390625,2,9.19317390625L2,2.5345039062500003C2.0000260252,2.3828539062500003,2.0517586,2.23573390625,2.14666,2.11743390625C2.241561,1.99915390625,2.373958,1.91674390625,2.5220000000000002,1.88383390625ZM10,4.99981390625C10,6.10438390625,9.104569999999999,6.99981390625,8,6.99981390625C6.89543,6.99981390625,6,6.10438390625,6,4.99981390625C6,3.89524390625,6.89543,2.99981390625,8,2.99981390625C9.104569999999999,2.99981390625,10,3.89524390625,10,4.99981390625ZM4.12702,10.99980390625C4.58301,9.23374390625,6.17601,7.99981390625,8,7.99981390625C9.82399,7.99981390625,11.41699,9.23374390625,11.87298,10.99980390625L4.12702,10.99980390625Z" fill-rule="evenodd" fill="url(#master_svg0_3784_034506)" fill-opacity="1"/></g></g></svg>