<svg xmlns="http://www.w3.org/2000/svg" xmlns:xlink="http://www.w3.org/1999/xlink" fill="none" version="1.1" width="16" height="16" viewBox="0 0 16 16"><defs><linearGradient x1="1" y1="0.6596809029579163" x2="0" y2="0.6596809029579163" id="master_svg0_3772_015256"><stop offset="4.04760055243969%" stop-color="#D9E2F3" stop-opacity="1"/><stop offset="100.00003576278687%" stop-color="#7F8BA0" stop-opacity="1"/></linearGradient></defs><g style="mix-blend-mode:passthrough"><g style="mix-blend-mode:passthrough"><path d="M1,3.8L1,2.2C1,2.089543,1.089543,2,1.2,2L14.8,2C14.9105,2,15,2.089543,15,2.2L15,3.8C15,3.91046,14.9105,4,14.8,4L1.2,4C1.089543,4,1,3.91046,1,3.8ZM1,6.2L1,13.8C1,13.9105,1.089543,14,1.2,14L14.8,14C14.9105,14,15,13.9105,15,13.8L15,6.2C15,6.08954,14.9105,6,14.8,6L1.2,6C1.089543,6,1,6.08954,1,6.2ZM9.63271,11.61705L8.628720000000001,12.621L6.41798,10.41029L5.08603,11.74225L3.67181,10.32803L5.41406,8.58578L5.41798,8.58971L6.42191,7.58578L8.629010000000001,9.79289L10.97656,7.44534L12.3908,8.85956L9.63271,11.61705L9.63271,11.61705Z" fill-rule="evenodd" fill="url(#master_svg0_3772_015256)" fill-opacity="1"/></g></g></svg>