<svg xmlns="http://www.w3.org/2000/svg" xmlns:xlink="http://www.w3.org/1999/xlink" fill="none" version="1.1" width="16" height="16" viewBox="0 0 16 16"><defs><linearGradient x1="1" y1="0.5" x2="0" y2="0.5" id="master_svg0_3784_034526"><stop offset="0.00022888184503244702%" stop-color="#4BFFC6" stop-opacity="1"/><stop offset="99.72267150878906%" stop-color="#1C6EFF" stop-opacity="1"/></linearGradient></defs><g style="mix-blend-mode:passthrough"><g style="mix-blend-mode:passthrough"><path d="M11.2,1C11.0895,1,11,1.089543,11,1.2L11,6.8C11,6.91046,11.0895,7,11.2,7L12.8,7C12.9105,7,13,6.91046,13,6.8L13,1.2C13,1.089543,12.9105,1,12.8,1L11.2,1ZM7,2.2L7,6.8C7,6.91046,7.08954,7,7.2,7L8.8,7C8.91046,7,9,6.91046,9,6.8L9,2.2C9,2.08954,8.91046,2,8.8,2L7.2,2C7.08954,2,7,2.08954,7,2.2ZM3,4.2L3,6.8C3,6.91046,3.08954,7,3.2,7L4.8,7C4.9104600000000005,7,5,6.91046,5,6.8L5,4.2C5,4.0895399999999995,4.9104600000000005,4,4.8,4L3.2,4C3.08954,4,3,4.0895399999999995,3,4.2ZM1,9.2L1,14.8C1,14.9105,1.089543,15,1.2,15L14.8,15C14.9105,15,15,14.9105,15,14.8L15,9.2C15,9.08954,14.9105,9,14.8,9L1.2,9C1.089543,9,1,9.08954,1,9.2ZM7,11.2C7,11.0895,6.91046,11,6.8,11L3.2,11C3.08954,11,3,11.0895,3,11.2L3,12.8C3,12.9105,3.08954,13,3.2,13L6.8,13C6.91046,13,7,12.9105,7,12.8L7,11.2ZM11.2,11L12.8,11C12.9105,11,13,11.0895,13,11.2L13,12.8C13,12.9105,12.9105,13,12.8,13L11.2,13C11.0895,13,11,12.9105,11,12.8L11,11.2C11,11.0895,11.0895,11,11.2,11Z" fill-rule="evenodd" fill="url(#master_svg0_3784_034526)" fill-opacity="1"/></g></g></svg>