<svg xmlns="http://www.w3.org/2000/svg" xmlns:xlink="http://www.w3.org/1999/xlink" fill="none" version="1.1" width="16" height="16" viewBox="0 0 16 16"><defs><linearGradient x1="1" y1="0.6596809029579163" x2="0" y2="0.6596809029579163" id="master_svg0_3784_015742"><stop offset="4.04760055243969%" stop-color="#D9E2F3" stop-opacity="1"/><stop offset="100.00003576278687%" stop-color="#7F8BA0" stop-opacity="1"/></linearGradient></defs><g style="mix-blend-mode:passthrough"><g style="mix-blend-mode:passthrough"><path d="M4.999815,6.13435171875C4.999815,6.20580171875,5.037935,6.27182171875,5.099815,6.30755171875L7.930885,7.94208171875C7.992765,7.97781171875,8.069005,7.97781171875,8.130885,7.94208171875L10.961955,6.30755171875C11.023875,6.27182171875,11.061975,6.20580171875,11.061975,6.13435171875L11.061975,2.86528171875C11.061975,2.79383171875,11.023875,2.72781171875,10.961955,2.69208171875L8.130885,1.05755261875C8.069005,1.02182567875,7.992765,1.02182567875,7.930885,1.05755261875L5.099815,2.69208171875C5.037935,2.72781171875,4.999815,2.79383171875,4.999815,2.86528171875L4.999815,6.13435171875ZM9.499815,5.49982171875L6.499815,5.49982171875L6.499815,3.49982171875L9.499815,3.49982171875L9.499815,5.49982171875ZM1.0843745,13.30756171875C1.0224945,13.27186171875,0.984375,13.20576171875,0.984375,13.13436171875L0.984375,9.86529171875C0.984375,9.79383171875,1.0224945,9.72781171875,1.0843745,9.69208171875L3.915445,8.05755171875C3.977325,8.021821718750001,4.053565,8.021821718750001,4.115444999999999,8.05755171875L6.946505,9.69208171875C7.008385,9.72781171875,7.046505,9.79383171875,7.046505,9.86529171875L7.046505,13.13436171875C7.046505,13.20576171875,7.008385,13.27186171875,6.946505,13.30756171875L4.115444999999999,14.94206171875C4.053565,14.97776171875,3.977325,14.97776171875,3.915445,14.94206171875L1.0843745,13.30756171875ZM9.099815,13.30756171875C9.037935,13.27186171875,8.999815,13.20576171875,8.999815,13.13436171875L8.999815,9.86529171875C8.999815,9.79383171875,9.037935,9.72781171875,9.099815,9.69208171875L11.930875,8.05755171875C11.992775,8.021821718750001,12.068975,8.021821718750001,12.130875,8.05755171875L14.961975,9.69208171875C15.023875,9.72781171875,15.061975,9.79383171875,15.061975,9.86529171875L15.061975,13.13436171875C15.061975,13.20576171875,15.023875,13.27186171875,14.961975,13.30756171875L12.130875,14.94206171875C12.068975,14.97776171875,11.992775,14.97776171875,11.930875,14.94206171875L9.099815,13.30756171875Z" fill-rule="evenodd" fill="url(#master_svg0_3784_015742)" fill-opacity="1"/></g></g></svg>