<svg xmlns="http://www.w3.org/2000/svg" xmlns:xlink="http://www.w3.org/1999/xlink" fill="none" version="1.1" width="16" height="16" viewBox="0 0 16 16"><defs><linearGradient x1="1" y1="0.5" x2="0" y2="0.5" id="master_svg0_3784_034456"><stop offset="0.00022888184503244702%" stop-color="#4BFFC6" stop-opacity="1"/><stop offset="99.72267150878906%" stop-color="#1C6EFF" stop-opacity="1"/></linearGradient></defs><g style="mix-blend-mode:passthrough"><g style="mix-blend-mode:passthrough"><path d="M2,1.2L2,6.8C2,6.91046,2.089543,7,2.2,7L13.8,7C13.9105,7,14,6.91046,14,6.8L14,1.2C14,1.089543,13.9105,1,13.8,1L2.2,1C2.089543,1,2,1.089543,2,1.2ZM4,3.2L4,4.8C4,4.9104600000000005,4.0895399999999995,5,4.2,5L7.8,5C7.91046,5,8,4.9104600000000005,8,4.8L8,3.2C8,3.08954,7.91046,3,7.8,3L4.2,3C4.0895399999999995,3,4,3.08954,4,3.2ZM2,9.2L2,14.8C2,14.9105,2.089543,15,2.2,15L13.8,15C13.9105,15,14,14.9105,14,14.8L14,9.2C14,9.08954,13.9105,9,13.8,9L2.2,9C2.089543,9,2,9.08954,2,9.2ZM4,11.2L4,12.8C4,12.9105,4.0895399999999995,13,4.2,13L7.8,13C7.91046,13,8,12.9105,8,12.8L8,11.2C8,11.0895,7.91046,11,7.8,11L4.2,11C4.0895399999999995,11,4,11.0895,4,11.2Z" fill-rule="evenodd" fill="url(#master_svg0_3784_034456)" fill-opacity="1"/></g></g></svg>