<svg xmlns="http://www.w3.org/2000/svg" xmlns:xlink="http://www.w3.org/1999/xlink" fill="none" version="1.1" width="16" height="16" viewBox="0 0 16 16"><defs><linearGradient x1="1" y1="0.6596809029579163" x2="0" y2="0.6596809029579163" id="master_svg0_3784_016822"><stop offset="4.04760055243969%" stop-color="#D9E2F3" stop-opacity="1"/><stop offset="100.00003576278687%" stop-color="#7F8BA0" stop-opacity="1"/></linearGradient></defs><g style="mix-blend-mode:passthrough"><g style="mix-blend-mode:passthrough"><path d="M10.000003099441528,5C11.573793099441529,5,13.055703099441528,5.74098,14.000003099441528,7.00002L14.000003099441528,5L14.000003099441528,3.75853C14.000003099441528,3.7014,13.976903099441529,3.64613,13.934203099441529,3.60817L11.057893099441529,1.0514549C11.02128309944153,1.018913,10.975833099441529,1,10.926853099441528,1L2.2000180994415284,1C2.0895609994415283,1,2.0000179894415284,1.0895431,2.0000179894415284,1.2L2.0000179894415284,13.0053L2.0000060934015282,13.8C2.0000030994415283,13.9105,2.0895479994415282,14,2.2000060994415285,14L7.000003099441528,14C5.740973099441528,13.0557,5.000003099441528,11.5738,5.000003099441528,10C5.000003099441528,7.23858,7.238583099441528,5,10.000003099441528,5ZM4.000003099441528,3.2L4.000003099441528,4.8C4.000003099441528,4.9104600000000005,4.089543099441528,5,4.2000030994415285,5L6.800003099441528,5C6.910463099441528,5,7.000003099441528,4.9104600000000005,7.000003099441528,4.8L7.000003099441528,3.2C7.000003099441528,3.08954,6.910463099441528,3,6.800003099441528,3L4.2000030994415285,3C4.089543099441528,3,4.000003099441528,3.08954,4.000003099441528,3.2ZM10.000003099441528,13C10.447323099441528,13,10.888983099441528,12.9,11.292643099441529,12.7072L13.916903099441528,15.3315C13.995003099441528,15.4096,14.12160309944153,15.4096,14.199703099441528,15.3315L15.33120309944153,14.2C15.409303099441528,14.1219,15.409303099441528,13.9953,15.33120309944153,13.9172L12.707003099441529,11.293C12.899903099441529,10.88927,13.000003099441528,10.44747,13.000003099441528,10C13.000003099441528,8.34315,11.656853099441529,7,10.000003099441528,7C8.343153099441528,7,7.000003099441528,8.34315,7.000003099441528,10C7.000003099441528,11.6569,8.343153099441528,13,10.000003099441528,13ZM10.000003099441528,11C10.552293099441528,11,11.000003099441528,10.55229,11.000003099441528,10C11.000003099441528,9.44771,10.552293099441528,9,10.000003099441528,9C9.447723099441529,9,9.000003099441528,9.44771,9.000003099441528,10C9.000003099441528,10.55229,9.447723099441529,11,10.000003099441528,11Z" fill-rule="evenodd" fill="url(#master_svg0_3784_016822)" fill-opacity="1"/></g></g></svg>