<svg xmlns="http://www.w3.org/2000/svg" xmlns:xlink="http://www.w3.org/1999/xlink" fill="none" version="1.1" width="16" height="16" viewBox="0 0 16 16"><defs><linearGradient x1="1" y1="0.5" x2="0" y2="0.5" id="master_svg0_3784_034446"><stop offset="0.00022888184503244702%" stop-color="#4BFFC6" stop-opacity="1"/><stop offset="99.72267150878906%" stop-color="#1C6EFF" stop-opacity="1"/></linearGradient></defs><g style="mix-blend-mode:passthrough"><g style="mix-blend-mode:passthrough"><path d="M8.8,1L1.2,1C1.0895431,1,1,1.0895429,1,1.2L1,10.8C1,10.91046,1.0895431,11,1.2,11L8.8,11C8.91046,11,9,10.91046,9,10.8L9,1.2C9,1.0895429,8.91046,1,8.8,1ZM6.8,3L3.2,3C3.08954,3,3,3.08954,3,3.2L3,4.8C3,4.9104600000000005,3.08954,5,3.2,5L6.8,5C6.91046,5,7,4.9104600000000005,7,4.8L7,3.2C7,3.08954,6.91046,3,6.8,3ZM3.2,7L6.8,7C6.91046,7,7,7.08954,7,7.2L7,8.8C7,8.91046,6.91046,9,6.8,9L3.2,9C3.08954,9,3,8.91046,3,8.8L3,7.2C3,7.08954,3.08954,7,3.2,7ZM11.2,9L14.8,9C14.9105,9,15,9.08954,15,9.2L15,14.8C15,14.9105,14.9105,15,14.8,15L1.2,15C1.0895431,15,1,14.9105,1,14.8L1,13.2C1,13.0895,1.0895431,13,1.2,13L10.8,13C10.91046,13,11,12.9105,11,12.8L11,9.2C11,9.08954,11.0895,9,11.2,9Z" fill-rule="evenodd" fill="url(#master_svg0_3784_034446)" fill-opacity="1"/></g></g></svg>