<svg xmlns="http://www.w3.org/2000/svg" xmlns:xlink="http://www.w3.org/1999/xlink" fill="none" version="1.1" width="16" height="16" viewBox="0 0 16 16"><defs><linearGradient x1="1" y1="0.5" x2="0" y2="0.5" id="master_svg0_3784_034536"><stop offset="0.00022888184503244702%" stop-color="#4BFFC6" stop-opacity="1"/><stop offset="99.72267150878906%" stop-color="#1C6EFF" stop-opacity="1"/></linearGradient></defs><g style="mix-blend-mode:passthrough"><g style="mix-blend-mode:passthrough"><path d="M2,9.8L2,2.2C2,2.089543,2.089543,2,2.2,2L13.8,2C13.9105,2,14,2.089543,14,2.2L14,6.2L12.1029,5.06174C12.0396,5.02374,11.96044,5.02374,11.8971,5.06174L7.0971,7.94174C7.03686,7.97788,7,8.04299,7,8.113240000000001L7,10L2.2,10C2.089543,10,2,9.91046,2,9.8ZM15.3641,8.94227C15.426,8.97799,15.4641,9.04402,15.4641,9.11547L15.4641,12.8845C15.4641,12.956,15.426,13.022,15.3641,13.0577L12.1,14.9423C12.0381,14.978,11.96188,14.978,11.9,14.9423L8.6359,13.0577C8.57402,13.022,8.5359,12.956,8.5359,12.8845L8.5359,9.11547C8.5359,9.04402,8.57402,8.97799,8.6359,8.94227L11.9,7.05773C11.96188,7.02201,12.0381,7.02201,12.1,7.05773L15.3641,8.94227ZM13,11C13,11.55229,12.5523,12,12,12C11.44771,12,11,11.55229,11,11C11,10.44771,11.44771,10,12,10C12.5523,10,13,10.44771,13,11ZM7,13.8868L7,12L3.2,12C3.08954,12,3,12.0895,3,12.2L3,13.8C3,13.9105,3.08954,14,3.2,14L7.03514,14C7.01261,13.9672,7,13.9279,7,13.8868Z" fill-rule="evenodd" fill="url(#master_svg0_3784_034536)" fill-opacity="1"/></g></g></svg>