<svg xmlns="http://www.w3.org/2000/svg" xmlns:xlink="http://www.w3.org/1999/xlink" fill="none" version="1.1" width="16" height="16" viewBox="0 0 16 16"><defs><linearGradient x1="1" y1="0.6596809029579163" x2="0" y2="0.6596809029579163" id="master_svg0_3784_018003"><stop offset="4.04760055243969%" stop-color="#D9E2F3" stop-opacity="1"/><stop offset="100.00003576278687%" stop-color="#7F8BA0" stop-opacity="1"/></linearGradient></defs><g style="mix-blend-mode:passthrough"><g style="mix-blend-mode:passthrough"><path d="M13.33337580051422,15C13.33337580051422,15,2.6666668005142213,15,2.6666668005142213,15Q2.489855800514221,15,1.9999758005142212,15Q2.0000000298142213,14.4856,2.0000000298142213,14.3Q2.0000000298142213,14.3,2.0000000298142213,1.7L1.9999758005142212,1.0000050813L2.6666668005142213,1L13.33337580051422,1L13.999975800514221,1.0000050813L13.999975800514221,1.7Q13.999975800514221,14.3,13.999975800514221,14.3Q13.999975800514221,14.4856,13.999975800514221,15Q13.51017580051422,15,13.33337580051422,15ZM3.999975800514221,3C3.999975800514221,3,3.999975800514221,5,3.999975800514221,5C3.999975800514221,5,5.999975800514221,5,5.999975800514221,5C5.999975800514221,5,5.999975800514221,3,5.999975800514221,3C5.999975800514221,3,3.999975800514221,3,3.999975800514221,3ZM3.999975800514221,7C3.999975800514221,7,3.999975800514221,9,3.999975800514221,9C3.999975800514221,9,11.999975800514221,9,11.999975800514221,9C11.999975800514221,9,11.999975800514221,7,11.999975800514221,7C11.999975800514221,7,3.999975800514221,7,3.999975800514221,7ZM4.010475800514222,11C4.010475800514222,11,4.010475800514222,12.9969,4.010475800514222,12.9969C4.010475800514222,12.9969,9.067725800514221,12.9813,9.067725800514221,12.9813C9.067725800514221,12.9813,9.067725800514221,10.98438,9.067725800514221,10.98438C9.067725800514221,10.98438,4.010475800514222,11,4.010475800514222,11ZM7.999975800514221,3C7.999975800514221,3,7.999975800514221,5,7.999975800514221,5C7.999975800514221,5,11.999975800514221,5,11.999975800514221,5C11.999975800514221,5,11.999975800514221,3,11.999975800514221,3C11.999975800514221,3,7.999975800514221,3,7.999975800514221,3Z" fill="url(#master_svg0_3784_018003)" fill-opacity="1"/></g></g></svg>