<svg xmlns="http://www.w3.org/2000/svg" xmlns:xlink="http://www.w3.org/1999/xlink" fill="none"
  version="1.1" width="16" height="16" viewBox="0 0 16 16">
  <defs>
    <radialGradient cx="0" cy="0" r="1" gradientUnits="userSpaceOnUse" id="master_svg0_3369_016605"
      gradientTransform="translate(7.999913215637207 7.668170928955078) rotate(90) scale(6.331867218017578 7.335850715637207)">
      <stop offset="0.00022888184503244702%" stop-color="#4BFFC6" stop-opacity="1" />
      <stop offset="99.72267150878906%" stop-color="#1C6EFF" stop-opacity="1" />
    </radialGradient>
  </defs>
  <g style="mix-blend-mode:passthrough">
    <g style="mix-blend-mode:passthrough">
      <g style="mix-blend-mode:passthrough"></g>
      <g style="mix-blend-mode:passthrough">
        <g style="mix-blend-mode:passthrough">
          <path
            d="M4.6665825,14.0000037109375L11.3332625,14.0000037109375C12.2777625,14.0006037109375,13.1919625,13.6670037109375,13.9141625,13.0581037109375C14.6362625,12.4493037109375,15.1195625,11.6046037109375,15.2786625,10.6735737109375C15.4376625,9.7425037109375,15.2621625,8.7852337109375,14.7830625,7.9712537109375C14.3040625,7.1572337109375,13.5523625,6.5390037109375,12.6612625,6.2260137109375C12.6914625,5.5951237109375,12.5932625,4.9646637109375,12.3725625,4.3728337109375C12.1519625,3.7810137109375,11.8135625,3.2401337109375,11.3776625,2.7829637109375C10.9418625,2.3257967109375,10.4177925,1.9618537109375,9.8371925,1.7131867109375C9.2565925,1.4645207109375,8.631532499999999,1.3363037109375,7.9999325,1.3363037109375C7.3683325,1.3363037109375,6.7432525,1.4645207109375,6.1626525,1.7131867109375C5.5820525,1.9618537109375,5.0579625,2.3257967109375,4.6221525,2.7829637109375C4.1863325,3.2401337109375,3.8478525,3.7810137109375,3.6272225,4.3728337109375C3.4065925,4.9646637109375,3.3083925,5.5951237109375,3.3385825,6.2260137109375C2.4474324999999997,6.5390037109375,1.6957925,7.1572337109375,1.2167375,7.9712537109375C0.7376885,8.7852337109375,0.5621435,9.7425037109375,0.7211867,10.6735737109375C0.8802305,11.6046037109375,1.3636025,12.4493037109375,2.0857125,13.0581037109375C2.8078125,13.6670037109375,3.7220725,14.0006037109375,4.6665825,14.0000037109375ZM10.7363625,10.0550537109375L5.0703125,10.0550537109375L5.0703125,11.3884037109375L10.7363625,11.3884037109375L10.7363625,10.0550537109375Z"
            fill-rule="evenodd" fill="url(#master_svg0_3369_016605)" fill-opacity="1" />
        </g>
      </g>
    </g>
  </g>
</svg>