<svg xmlns="http://www.w3.org/2000/svg" xmlns:xlink="http://www.w3.org/1999/xlink" fill="none" version="1.1" width="16" height="16" viewBox="0 0 16 16"><defs><linearGradient x1="1" y1="0.6596809029579163" x2="0" y2="0.6596809029579163" id="master_svg0_3772_015435"><stop offset="4.04760055243969%" stop-color="#D9E2F3" stop-opacity="1"/><stop offset="100.00003576278687%" stop-color="#7F8BA0" stop-opacity="1"/></linearGradient></defs><g style="mix-blend-mode:passthrough"><g style="mix-blend-mode:passthrough"><path d="M2,5.8L2,2.2C2,2.089543,2.089543,2,2.2,2L6.8,2C6.91046,2,7,2.089543,7,2.2L7,5.8C7,5.9104600000000005,6.91046,6,6.8,6L2.2,6C2.089543,6,2,5.9104600000000005,2,5.8ZM2,13.8L2,8.2C2,8.08954,2.089543,8,2.2,8L6.8,8C6.91046,8,7,8.08954,7,8.2L7,13.8C7,13.9105,6.91046,14,6.8,14L2.2,14C2.089543,14,2,13.9105,2,13.8ZM9,13.8L9,10.2C9,10.08954,9.08954,10,9.2,10L13.8,10C13.9105,10,14,10.08954,14,10.2L14,13.8C14,13.9105,13.9105,14,13.8,14L9.2,14C9.08954,14,9,13.9105,9,13.8ZM9,7.8L9,2.2C9,2.089543,9.08954,2,9.2,2L13.8,2C13.9105,2,14,2.089543,14,2.2L14,7.8C14,7.91046,13.9105,8,13.8,8L9.2,8C9.08954,8,9,7.91046,9,7.8Z" fill="url(#master_svg0_3772_015435)" fill-opacity="1"/></g></g></svg>