<svg version="1.1" viewBox="0 0 16 16" focusable="false">
  <g style="mix-blend-mode:passthrough">
    <g style="mix-blend-mode:passthrough">
      <path
        d="M8.263734375,7L4.200004375,7C4.089544375,7,4.000004375,6.910457,4.000004375,6.8L4.000004375,6.2C4.000004375,6.0895431,4.089544375,6,4.200004375,6L9.802684375,6C9.913144375,6,10.002684375000001,6.0895431,10.002684375000001,6.2L10.002684375000001,11.8C10.002684375000001,11.91046,9.913144375,12,9.802684375,12L9.202654375,12C9.092214375000001,12,9.002674375,11.91047,9.002654374999999,11.80003L9.002074375,7.67578L2.994960375,13.71152C2.916901375,13.789950000000001,2.789990375,13.79009,2.711757375,13.711829999999999L2.287521375,13.28745C2.209570875,13.20947,2.209431875,13.083120000000001,2.287210375,13.00497L8.263734375,7Z"
        fill-rule="evenodd" />
    </g>
    <g style="mix-blend-mode:passthrough" transform="matrix(-1,0,0,-1,28,30)">
      <path
        d="M14.000118384,15.200118L14.00757219,27.8001C14.0076375,27.9105,14.0971614,28,14.207572,28L26.8077,28C26.918100000000003,28,27.0077,27.9105,27.0077,27.8L27.0077,22.2C27.0077,22.08954,26.918100000000003,22,26.8077,22L26.207700000000003,22C26.0972,22,26.0077,22.08953,26.0077,22.19997L26.006999999999998,27.031L14.999665,27.031L14.999665,16L19.68601,15.992273C19.79634,15.992091,19.88568,15.902601,19.88568,15.792273L19.88568,15.2C19.88568,15.0895431,19.79614,15,19.685679999999998,15L14.200118,15C14.0896152,15,14.0000530138,15.0896152,14.000118384,15.200118"
        fill-rule="evenodd" />
    </g>
  </g>
</svg>