<svg xmlns="http://www.w3.org/2000/svg" xmlns:xlink="http://www.w3.org/1999/xlink" fill="none" version="1.1" width="16" height="16" viewBox="0 0 16 16"><defs><linearGradient x1="1" y1="0.6596809029579163" x2="0" y2="0.6596809029579163" id="master_svg0_3778_015448"><stop offset="4.04760055243969%" stop-color="#D9E2F3" stop-opacity="1"/><stop offset="100.00003576278687%" stop-color="#7F8BA0" stop-opacity="1"/></linearGradient></defs><g style="mix-blend-mode:passthrough"><g style="mix-blend-mode:passthrough"><path d="M1,8C1,11.8661,4.133900000000001,15,8,15C11.8661,15,15,11.8661,15,8C15,4.133900000000001,11.8661,1,8,1C4.133900000000001,1,1,4.133900000000001,1,8ZM7,3.2C7,3.08954,7.08954,3,7.2,3L8.8,3C8.91046,3,9,3.08954,9,3.2L9,6.8C9,6.91046,9.08954,7,9.2,7L12.8,7C12.9105,7,13,7.08954,13,7.2L13,8.8C13,8.91046,12.9105,9,12.8,9L7.2,9C7.08954,9,7,8.91046,7,8.8L7,3.2Z" fill-rule="evenodd" fill="url(#master_svg0_3778_015448)" fill-opacity="1"/></g></g></svg>