<svg xmlns="http://www.w3.org/2000/svg" xmlns:xlink="http://www.w3.org/1999/xlink" fill="none" version="1.1" width="16" height="16" viewBox="0 0 16 16"><defs><linearGradient x1="1" y1="0.6596809029579163" x2="0" y2="0.6596809029579163" id="master_svg0_3776_015252"><stop offset="4.04760055243969%" stop-color="#D9E2F3" stop-opacity="1"/><stop offset="100.00003576278687%" stop-color="#7F8BA0" stop-opacity="1"/></linearGradient></defs><g style="mix-blend-mode:passthrough"><g style="mix-blend-mode:passthrough"><path d="M1.2975508125,6.21018703125C0.9501219125,6.09437703125,0.9462295125,5.90746703125,1.3024588125,5.78810703125C1.3037858125,5.78765703125,1.3046078125,5.78737703125,1.3059268125,5.78690703125C1.4768818125,5.72590703125,14.4156328125,1.10890763125,14.5896328125,1.04682243125C14.5909328125,1.0463391312499999,14.5918328125,1.04604603125,14.5931328125,1.04559523125C14.9438328125,0.92981443125,15.1448328125,1.12579703125,15.0481328125,1.46896703125C15.0475328125,1.47083603125,15.0471328125,1.47216903125,15.0465328125,1.47402003125C14.9812328125,1.67971703125,10.9169228125,14.48120703125,10.8497128125,14.69290703125C10.8490828125,14.69480703125,10.8486628125,14.69630703125,10.8480928125,14.69820703125C10.7478228125,15.04830703125,10.5451528125,15.05930703125,10.3962028125,14.72550703125C10.3962028125,14.72550703125,8.3874628125,10.20504703125,8.048492812500001,9.44221703125C8.0176628125,9.37283703125,8.032412812499999,9.29460703125,8.0808228125,9.23610703125C8.461312812500001,8.77635703125,10.1019528125,6.79390703125,11.1362328125,5.54418703125C11.2825328125,5.36734703125,11.0901328125,5.09740703125,10.8982528125,5.22334703125C9.4979328125,6.14230703125,7.2069028125,7.64579703125,6.7482728125,7.94677703125C6.6970928125,7.98035703125,6.6346428125,7.98943703125,6.5765728125,7.97007703125C5.8730828125,7.73554703125,1.2975508125,6.21018703125,1.2975508125,6.21018703125Z" fill="url(#master_svg0_3776_015252)" fill-opacity="1"/></g></g></svg>