<svg xmlns="http://www.w3.org/2000/svg" xmlns:xlink="http://www.w3.org/1999/xlink" fill="none" version="1.1" width="16" height="16" viewBox="0 0 16 16"><defs><linearGradient x1="1" y1="0.6596809029579163" x2="0" y2="0.6596809029579163" id="master_svg0_3772_015122"><stop offset="4.04760055243969%" stop-color="#D9E2F3" stop-opacity="1"/><stop offset="100.00003576278687%" stop-color="#7F8BA0" stop-opacity="1"/></linearGradient></defs><g style="mix-blend-mode:passthrough"><g style="mix-blend-mode:passthrough"><path d="M1.2,15.0000984375C1.0895431,15.0000984375,1,14.9105984375,1,14.8000984375L1,6.1030484375C1,6.0384584375,1.0311931,5.9778384375,1.0837523,5.9402984375L7.88375,1.0831561375C7.95329,1.0334850375,8.046710000000001,1.0334850375,8.11625,1.0831561375L14.9162,5.9402984375C14.9688,5.9778384375,15,6.0384584375,15,6.1030484375L15,14.8000984375C15,14.9105984375,14.9105,15.0000984375,14.8,15.0000984375L1.2,15.0000984375ZM4,10.2001184375L4,11.8000984375C4,11.9105984375,4.0895399999999995,12.0000984375,4.2,12.0000984375L11.8,12.0000984375C11.9105,12.0000984375,12,11.9105984375,12,11.8000984375L12,10.2001184375C12,10.0896684375,11.9105,10.0001184375,11.8,10.0001184375L4.2,10.0001184375C4.0895399999999995,10.0001184375,4,10.0896684375,4,10.2001184375Z" fill-rule="evenodd" fill="url(#master_svg0_3772_015122)" fill-opacity="1"/></g></g></svg>