<svg viewBox="0 0 16 16" focusable="false">
  <g style="mix-blend-mode: passthrough">
    <path
      fill-rule="evenodd"
      d="M8.095 3.853a.2.2 0 0 0-.22-.042L4.04 5.455l-.006.002-.713.305a.2.2 0 0 0-.063.326L6.232 9.06l-2.687 2.687a.2.2 0 0 0 0 .283l.425.425a.2.2 0 0 0 .282 0L6.94 9.769l2.973 2.972c.1.1.27.067.325-.063l.306-.713.002-.005 1.644-3.835a.2.2 0 0 0-.043-.22l-.611-.612 1.98-1.98a.2.2 0 0 0 0-.283l-2.546-2.545a.2.2 0 0 0-.283 0l-1.98 1.98-.61-.612Z"
      style="mix-blend-mode: passthrough"
    />
  </g>
</svg>