<svg xmlns="http://www.w3.org/2000/svg" xmlns:xlink="http://www.w3.org/1999/xlink" fill="none" version="1.1" width="16" height="16" viewBox="0 0 16 16"><defs><linearGradient x1="1" y1="0.6596809029579163" x2="0" y2="0.6596809029579163" id="master_svg0_3784_017798"><stop offset="4.04760055243969%" stop-color="#D9E2F3" stop-opacity="1"/><stop offset="100.00003576278687%" stop-color="#7F8BA0" stop-opacity="1"/></linearGradient></defs><g style="mix-blend-mode:passthrough"><g style="mix-blend-mode:passthrough"><path d="M1,1.2L1,6.8C1,6.91046,1.089543,7,1.2,7L3,7L3,9L1.2,9C1.089543,9,1,9.08954,1,9.2L1,14.8C1,14.9105,1.089543,15,1.2,15L6.8,15C6.91046,15,7,14.9105,7,14.8L7,13L9,13L9,14.8C9,14.9105,9.08954,15,9.2,15L14.8,15C14.9105,15,15,14.9105,15,14.8L15,9.2C15,9.08954,14.9105,9,14.8,9L13,9L13,7L14.8,7C14.9105,7,15,6.91046,15,6.8L15,1.2C15,1.089543,14.9105,1,14.8,1L9.2,1C9.08954,1,9,1.089543,9,1.2L9,3L7,3L7,1.2C7,1.089543,6.91046,1,6.8,1L1.2,1C1.089543,1,1,1.089543,1,1.2ZM12.8,11L11.2,11C11.0895,11,11,11.0895,11,11.2L11,12.8C11,12.9105,11.0895,13,11.2,13L12.8,13C12.9105,13,13,12.9105,13,12.8L13,11.2C13,11.0895,12.9105,11,12.8,11ZM11,9L11,7L9.2,7C9.08954,7,9,6.91046,9,6.8L9,5L7,5L7,6.8C7,6.91046,6.91046,7,6.8,7L5,7L5,9L6.8,9C6.91046,9,7,9.08954,7,9.2L7,11L9,11L9,9.2C9,9.08954,9.08954,9,9.2,9L11,9Z" fill-rule="evenodd" fill="url(#master_svg0_3784_017798)" fill-opacity="1"/></g></g></svg>