<svg xmlns="http://www.w3.org/2000/svg" xmlns:xlink="http://www.w3.org/1999/xlink" fill="none" version="1.1" width="16" height="16" viewBox="0 0 16 16"><defs><linearGradient x1="1" y1="0.5" x2="0" y2="0.5" id="master_svg0_3784_034486"><stop offset="0.00022888184503244702%" stop-color="#4BFFC6" stop-opacity="1"/><stop offset="99.72267150878906%" stop-color="#1C6EFF" stop-opacity="1"/></linearGradient></defs><g style="mix-blend-mode:passthrough"><g style="mix-blend-mode:passthrough"><path d="M8,0.66650390625L2.5220000000000002,1.88383390625C2.373958,1.91674390625,2.241561,1.99915390625,2.14666,2.11743390625C2.0517586,2.23573390625,2.0000260252,2.3828539062500003,2,2.5345039062500003L2,9.19317390625C2.000157571,9.85157390625,2.162824,10.49970390625,2.473565,11.08020390625C2.784307,11.66060390625,3.23351,12.15530390625,3.78133,12.52050390625L8,15.33320390625L12.2187,12.52050390625C12.7666,12.15520390625,13.2159,11.66040390625,13.5266,11.07980390625C13.8373,10.49930390625,13.9999,9.85097390625,14,9.19250390625L14,2.5345039062500003C14,2.3828539062500003,13.9483,2.23573390625,13.8533,2.11743390625C13.7585,1.99915390625,13.6261,1.91674390625,13.478,1.88383390625L8,0.66650390625ZM10.9722,6.83316390625L8.94902,6.83316390625C8.83857,6.83316390625,8.75,6.74712390625,8.75,6.63667390625L8.75,3.27130390625C8.75,3.07910390625,8.505510000000001,2.99248390625,8.39019,3.14625390625L4.6162,8.17824390625C4.51731,8.31009390625,4.61299,8.49984390625,4.7778,8.49984390625L6.80098,8.49984390625C6.91143,8.49984390625,7,8.58588390625,7,8.69633390625L7,12.06170390625C7,12.25390390625,7.24449,12.34050390625,7.35981,12.18680390625L11.1338,7.15476390625C11.23269,7.02291390625,11.13701,6.83316390625,10.9722,6.83316390625Z" fill-rule="evenodd" fill="url(#master_svg0_3784_034486)" fill-opacity="1"/></g></g></svg>