<svg xmlns="http://www.w3.org/2000/svg" xmlns:xlink="http://www.w3.org/1999/xlink" fill="none" version="1.1" width="16" height="16" viewBox="0 0 16 16"><defs><linearGradient x1="1" y1="0.6596809029579163" x2="0" y2="0.6596809029579163" id="master_svg0_3776_015423"><stop offset="4.04760055243969%" stop-color="#D9E2F3" stop-opacity="1"/><stop offset="100.00003576278687%" stop-color="#7F8BA0" stop-opacity="1"/></linearGradient></defs><g style="mix-blend-mode:passthrough"><g style="mix-blend-mode:passthrough"><path d="M7,1L15,1L15,11L13,11L13,3L7,3L7,1ZM1,14.8L1,5.2C1,5.08954,1.089543,5,1.2,5L10.8,5C10.91046,5,11,5.08954,11,5.2L11,14.8C11,14.9105,10.91046,15,10.8,15L1.2,15C1.089543,15,1,14.9105,1,14.8ZM5.5,12.5228L9.60849,8.41428L8.19421,7L5.4169,9.77728L4.04288,8.40326L2.62866,9.81747L5.41208,12.6009L5.49509,12.5179L5.5,12.5228Z" fill-rule="evenodd" fill="url(#master_svg0_3776_015423)" fill-opacity="1"/></g></g></svg>