<svg xmlns="http://www.w3.org/2000/svg" xmlns:xlink="http://www.w3.org/1999/xlink" fill="none" version="1.1" width="16" height="16" viewBox="0 0 16 16"><defs><linearGradient x1="1" y1="0.5" x2="0" y2="0.5" id="master_svg0_3784_034586"><stop offset="0.00022888184503244702%" stop-color="#4BFFC6" stop-opacity="1"/><stop offset="99.72267150878906%" stop-color="#1C6EFF" stop-opacity="1"/></linearGradient></defs><g style="mix-blend-mode:passthrough"><g style="mix-blend-mode:passthrough"><path d="M8,1C11.864,1,15,4.136,15,8C15,11.864,11.864,15,8,15C4.136,15,1,11.864,1,8C1,4.136,4.136,1,8,1ZM9,7C9,7,9.98542,7,10.60623,7C10.786,7,10.87656,6.78368,10.74738,6.65867C10.06592,5.99921,8.595279999999999,4.57606,8.13834,4.13387C8.0608,4.05883,7.9392,4.05883,7.86166,4.13387C7.40472,4.57606,5.93408,5.99921,5.25262,6.65867C5.12344,6.78368,5.214,7,5.39377,7C6.01458,7,7,7,7,7C7,7,7,10.872,7,11.8013C7,11.9117,7.08803,12,7.19849,12C7.58151,12,8.41849,12,8.80151,12C8.91197,12,9,11.9117,9,11.8013C9,10.872,9,7,9,7Z" fill="url(#master_svg0_3784_034586)" fill-opacity="1"/></g></g></svg>