<svg xmlns="http://www.w3.org/2000/svg" xmlns:xlink="http://www.w3.org/1999/xlink" fill="none" version="1.1" width="27" height="22.585674285888672" viewBox="0 0 27 22.585674285888672"><g style="mix-blend-mode:passthrough"><path d="M18.5247,18.0641C19.2691,18.81,20.1695,19.2581,21.1678,19.5388L21.5039,19.6253C22.2044,19.753,22.5716,20.3911,22.6028,21.0433C22.6028,21.809,22.0455,22.4613,21.2798,22.5733C20.5481,22.6684,19.7824,22.2061,19.6236,21.473C19.401,20.3428,18.9217,19.3545,18.0936,18.5264C17.9986,18.43,18.0624,18.2229,18.0298,18.0641L18.4027,18.0358C18.4594,18.0358,18.502,18.0429,18.5247,18.0641ZM19.8789,3.62899C21.4386,5.2852,22.3008,7.24487,22.332,9.52358C21.9365,9.34443,21.507,9.25254,21.0728,9.25416L21.009,9.25416C19.5201,9.31422,18.2969,10.4497,18.1262,11.9299C18.0943,12.1946,18.0943,12.4621,18.1262,12.7268C17.5675,13.2841,16.8826,13.6343,16.0389,13.7775L16.0219,13.7775C14.9228,14.0105,14.0556,14.855,13.7936,15.9476C13.5316,17.0402,13.9214,18.1861,14.7954,18.8922C13.8383,19.1844,12.8473,19.3508,11.8474,19.3871C10.5672,19.4483,9.2849,19.3246,8.04005,19.0199C7.83086,18.9936,7.61844,19.0154,7.41897,19.0837L4.53478,20.5017C4.16752,20.6931,3.83287,20.7243,3.51382,20.4705C3.21179,20.2464,3.18059,19.9118,3.21179,19.5133C3.33941,18.7178,3.43583,17.9209,3.51524,17.124C3.50226,16.9288,3.42325,16.7437,3.2912,16.5994C2.03344,15.3388,0.950095,13.9534,0.408423,12.2007C-0.61253,8.72667,0.312,5.74889,2.83035,3.26173C7.43457,-1.24748,15.4788,-1.04045,19.8789,3.62899ZM25.6146,15.1161C26.4115,15.2126,27,15.8492,27,16.6461C27,17.4119,26.5377,18.0315,25.7734,18.1762C24.8376,18.3463,23.9924,18.7434,23.2891,19.3531L23.0339,19.5942C22.8736,19.753,22.6354,19.8962,22.4752,19.658C22.4114,19.5303,22.444,19.2269,22.539,19.1319C23.2894,18.3717,23.7849,17.397,23.957,16.3427C24.1041,15.5635,24.8265,15.029,25.6146,15.1161ZM19.6548,13.6825C19.6236,13.8414,19.6874,14.0796,19.591,14.176C18.7955,14.9729,18.3644,15.9286,18.1418,17.029C17.9816,17.8245,17.2485,18.2868,16.4842,18.1591C15.7185,18.0315,15.1456,17.3622,15.1456,16.6135C15.1456,15.9442,15.6405,15.3232,16.3083,15.1955C17.3865,15.0196,18.3834,14.5133,19.1613,13.7464C19.2564,13.6499,19.496,13.6825,19.6548,13.6825ZM21.0728,10.6863C21.7747,10.6863,22.427,11.1486,22.5716,11.8817C22.7616,12.9806,23.2409,13.9378,24.0208,14.7333C24.1172,14.8297,24.0534,15.1005,24.0846,15.2594C23.8932,15.2594,23.655,15.3232,23.56,15.2282C22.7616,14.3986,21.7733,13.969,20.6743,13.7308C19.9386,13.5552,19.4521,12.8551,19.5442,12.1043C19.6548,11.3088,20.2773,10.7189,21.0728,10.6863Z" fill="#A8B3C9" fill-opacity="1"/></g></svg>