<svg xmlns="http://www.w3.org/2000/svg" fill="none" width="22" height="22"><g style="mix-blend-mode:passthrough"><path d="M20.048 3c.526 0 .952.431.952.963v12.074a.958.958 0 0 1-.952.963H1.952A.958.958 0 0 1 1 16.037V3.963C1 3.431 1.426 3 1.952 3h18.096zM19.5 4.5h-17v11h17v-11zM11.105 7l1.051.278-1.256 5.77-1.051-.277L11.105 7zM5 9.905l2.618-2.842 1.044.889-2.025 1.953 1.85 1.95-.869.891L5 9.905zm9.382-2.842-.938.889 1.964 1.963-1.964 1.94.938.891L17 9.906l-2.618-2.843zM16 18.8a.8.8 0 0 1-.8.8H6.8a.8.8 0 0 1 0-1.6h8.4a.8.8 0 0 1 .8.8z" fill-rule="evenodd" fill="#14161A" style="mix-blend-mode:passthrough"/></g></svg>