<svg xmlns="http://www.w3.org/2000/svg" fill="none" width="162" height="42"><defs><linearGradient x1=".5" y1="-.112" x2=".5" y2=".731" id="a"><stop offset="0%" stop-color="#6DC6E9"/><stop offset="100%" stop-color="#1F3D8F"/></linearGradient><linearGradient x1="1.001" y1=".5" x2="0" y2=".5" id="b"><stop offset="0%" stop-color="#C0D787"/><stop offset="85%" stop-color="#6FB647"/></linearGradient><linearGradient x1="1" y1=".5" x2="0" y2=".5" id="c"><stop offset="0%" stop-color="#C0D787"/><stop offset="85%" stop-color="#6FB647"/></linearGradient><linearGradient x1=".777" y1=".302" x2="-.225" y2=".302" id="d"><stop offset="0%" stop-color="#C0D787"/><stop offset="85%" stop-color="#6FB647"/></linearGradient><radialGradient cx="0" cy="0" r="1" gradientUnits="userSpaceOnUse" id="e" gradientTransform="matrix(30.21642 0 0 29.7848 23.404 13)"><stop offset="0%" stop-color="#6DC6E9"/><stop offset="100%" stop-color="#1F3D8F"/></radialGradient></defs><g style="mix-blend-mode:passthrough"><g style="mix-blend-mode:passthrough"><path d="M4.226 10.6A134.978 134.978 0 0 0 19.8 4.617a134.979 134.979 0 0 0 15.574 5.981 40.269 40.269 0 0 1-.585 6.283 17.268 17.268 0 0 1 2.686 6.51 44.245 44.245 0 0 0 2.114-14.54l-.09-1.382-1.35-.39A132.63 132.63 0 0 1 20.688.422L19.8 0l-.887.421A132.784 132.784 0 0 1 1.45 7.081l-1.349.39-.09 1.382A44.242 44.242 0 0 0 2.125 23.39a17.374 17.374 0 0 1 2.692-6.528 41.08 41.08 0 0 1-.591-6.264z" fill="url(#a)" style="mix-blend-mode:passthrough"/><path d="M26.238 32.646S17.128 33.708 12 30.548c-2.602-1.609-1.702-4.87 1.928-5.806 2.473-.628 11.757-.54 17.829.497 6.071 1.036 4.876 6.352-5.52 7.407z" fill="url(#b)" style="mix-blend-mode:passthrough"/><path d="M34.114 32.81s-2.621 3.323-9.425 4.322a27.383 27.383 0 0 1-8.725 0s-2.737-.717-3.213 1.357c-.559 2.482 6.143 4.888 12.773 2.381 3.893-1.39 7.01-4.315 8.59-8.06z" fill="url(#c)" style="mix-blend-mode:passthrough"/><path d="M35.06 23.234s-1.729-2.928-9.387-5.026c-7.659-2.099-11.514.59-13.493-1.15-.97-.86-.199-2.946.92-3.864 1.824-1.508 6.88-3.185 12.592-.779 8.359 3.531 9.368 10.82 9.368 10.82z" fill="url(#d)" style="mix-blend-mode:passthrough"/><path d="M14.834 16.078c-6.804 1.005-9.425 4.329-9.425 4.329 1.58-3.746 4.697-6.67 8.59-8.061 6.63-2.513 13.332-.138 12.773 2.375-.476 2.08-3.213 1.357-3.213 1.357-2.89-.46-5.836-.46-8.725 0zm-1.478 4.329s9.11-1.043 14.244 2.098c2.57 1.603 1.702 4.87-1.928 5.8-2.48.628-11.757.546-17.829-.497-6.071-1.043-4.876-6.34 5.513-7.401zm.47 20.381c5.705 2.407 10.761.736 12.586-.772 1.118-.924 1.889-3.01.919-3.864-.893-.79-2.186-.671-4.045-.5-2.236.205-5.29.485-9.448-.65-7.613-2.08-9.386-5.026-9.386-5.026s1.021 7.294 9.374 10.812z" fill-rule="evenodd" fill="url(#e)" style="mix-blend-mode:multiply"/></g><g style="mix-blend-mode:passthrough"><path d="m59.903 30.978-.74 1.48a3.316 3.316 0 0 0-1.637-.56c-.623 0-.961.29-.961.731 0 .442.765.785 1.691 1.182.926.397 1.887 1.164 1.887 2.238 0 1.949-1.469 2.635-3.044 2.635a4.686 4.686 0 0 1-3.07-1.092l.89-1.57a3.91 3.91 0 0 0 1.975.902c.41 0 1.166-.045 1.166-.803 0-.604-.89-.902-1.78-1.353a2.433 2.433 0 0 1-1.54-2.103 2.605 2.605 0 0 1 .82-1.815 2.534 2.534 0 0 1 1.85-.684c.892.018 1.758.3 2.493.812z" fill="#221F20" style="mix-blend-mode:passthrough"/><path d="M66.382 38.54h1.976L65.1 30.347h-1.7l-3.257 8.193h1.976l.596-1.643h3.07l.597 1.643zm-3.018-3.276.89-2.382.935 2.382h-1.825z" fill-rule="evenodd" fill="#221F20" style="mix-blend-mode:passthrough"/><path d="M70.511 38.539H68.67v-8.166h1.842l3.205 5.08v-5.08h1.833v8.193h-1.833l-3.214-5.08.01 5.053zM84.05 35.724c-.357 1.782-1.938 3.036-3.73 2.96a4.034 4.034 0 0 1-2.834-1.294 4.147 4.147 0 0 1-1.1-2.947 4.084 4.084 0 0 1 1.081-2.965 3.972 3.972 0 0 1 2.853-1.276 3.77 3.77 0 0 1 3.115 1.399l-1.201 1.335a2.016 2.016 0 0 0-1.78-1.047 2.581 2.581 0 0 0-2.057 2.54c0 1.236.861 2.3 2.057 2.54.445.043.888-.102 1.225-.4a1.66 1.66 0 0 0 .555-1.179h-1.86v-1.407h3.729l-.053 1.741zM89.532 31.988h-2.83v1.624h2.608v1.643h-2.608v3.284h-1.843v-8.166h4.673v1.615z" fill="#221F20" style="mix-blend-mode:passthrough"/><path d="M98.263 34.443c0-2.343-1.872-4.241-4.183-4.241a4.085 4.085 0 0 0-2.907 1.256 4.2 4.2 0 0 0-1.17 2.976 4.11 4.11 0 0 0 1.136 3.015 3.996 3.996 0 0 0 2.941 1.234c2.31 0 4.183-1.898 4.183-4.24zm-2.108-.01c0 1.219-.606 2.446-2.074 2.446-1.469 0-2.047-1.227-2.083-2.445a2.14 2.14 0 0 1 .941-2.1 2.077 2.077 0 0 1 2.275 0 2.14 2.14 0 0 1 .94 2.1zM104.537 32.81c0-1.607-1.166-2.437-2.67-2.437H99.02v8.193h1.842v-3.24l2.466 3.24h2.34l-2.785-3.384a2.353 2.353 0 0 0 1.655-2.373zm-1.966.099c0 1.02-.836 1.074-1.53 1.074h-.214v-2.148h.213c.695 0 1.531.054 1.531 1.074z" fill-rule="evenodd" fill="#221F20" style="mix-blend-mode:passthrough"/><path d="m117.222 30.978-.748 1.48a3.316 3.316 0 0 0-1.638-.56c-.623 0-.952.289-.952.731s.756.785 1.682 1.182c.926.397 1.887 1.164 1.887 2.238 0 1.949-1.469 2.635-3.044 2.635a4.686 4.686 0 0 1-3.035-1.083l.89-1.57a3.91 3.91 0 0 0 1.976.902c.4 0 1.157-.045 1.157-.803 0-.595-.89-.902-1.78-1.353a2.424 2.424 0 0 1-1.531-2.103c.02-.684.31-1.332.802-1.801a2.526 2.526 0 0 1 1.824-.698 4.558 4.558 0 0 1 2.51.803zM122.936 31.988h-2.786v1.624h2.67v1.643h-2.67v1.642h2.786v1.642h-4.628v-8.166h4.628v1.615zM129.869 36.346l.783 1.58a4.152 4.152 0 0 1-5.534-.659 4.294 4.294 0 0 1 0-5.649 4.152 4.152 0 0 1 5.534-.658l-.783 1.579a2.795 2.795 0 0 0-1.585-.506 2.383 2.383 0 0 0-2.314 1.112 2.455 2.455 0 0 0 0 2.596 2.383 2.383 0 0 0 2.314 1.11 2.795 2.795 0 0 0 1.585-.505zM137.56 35.625c0 2.02-1.095 3.058-3.151 3.058s-3.151-1.037-3.151-3.058v-5.252h1.833v4.737c0 1.363.41 1.805 1.318 1.805.907 0 1.308-.406 1.308-1.805v-4.737h1.842v5.252z" fill="#221F20" style="mix-blend-mode:passthrough"/><path d="M143.383 30.981a2.33 2.33 0 0 0-1.863-.608h-2.893v8.193h1.843v-3.24l2.465 3.24h2.341l-2.777-3.384a2.344 2.344 0 0 0 1.647-2.373 2.398 2.398 0 0 0-.763-1.828zm-1.168 1.928c0 1.02-.837 1.074-1.531 1.074h-.214v-2.148h.214c.694 0 1.53.054 1.53 1.074z" fill-rule="evenodd" fill="#221F20" style="mix-blend-mode:passthrough"/><path d="M147.483 38.539h-1.842v-8.166h1.842v8.166zM147.67 30.373h5.678v1.642h-1.922v6.551h-1.842v-6.55h-1.914v-1.643z" fill="#221F20" style="mix-blend-mode:passthrough"/><path d="M155.342 30.373 157.024 33l1.683-2.626h2.207l-2.973 4.512v3.672H156.1v-3.672l-2.973-4.512h2.216z" fill="#221F20" style="mix-blend-mode:passthrough"/><path d="M111.579 23.39h2.162l.045-.686h8.01v.73h2.163v-8.247h-6.844l1.023-1.317-2.305-1.606h2.501v-1.76h-2.84c.063-.387.063-.775.063-1.163h2.305V7.59h-4.539c.09-.154.205-.344.338-.587l.267-.587h-2.1c-.472.979-1.07 1.89-1.78 2.707.246.282.469.584.667.902.105.136.197.281.276.433h-1.041v1.76h2.91c-.382.776-1.424 1.507-3.053 2.192.446.532.856 1.093 1.229 1.679a.887.887 0 0 1 .543-.298v7.597zm6.977-9.258V7.626h6.436v6.506h-6.436zm-5.082-4.837c.007.393-.04.785-.142 1.164h-2.03a7.557 7.557 0 0 0 1.015-1.164h1.157zm7.05 3.032h2.438V9.44h-2.439v2.887zm-4.006 2.815h-3.747a7.166 7.166 0 0 0 1.86-1.831c.149.156.306.304.472.442.632.586 1.104 1.046 1.415 1.39zm5.225 2.987v-1.164h-8.01v1.164h8.01zm-8.01 1.678v1.173h8.01v-1.173h-8.01zM134.044 6.959l2.67-.587c.08.35.193.692.338 1.02.113.26.205.529.276.803h5.705v3.799h-2.305v-1.606h-10.075v1.534h-2.306V8.195h6.168a3.89 3.89 0 0 0-.338-.803 3.712 3.712 0 0 0-.133-.433zm-6.373 6.352v2.193l3.854.045a84.275 84.275 0 0 1-1.558 2.707l2.234.902 1.629.65a31.293 31.293 0 0 1-6.168 1.47c.33.512.628 1.046.89 1.598.113.157.202.33.267.514a26.301 26.301 0 0 0 7.726-2.337 53.323 53.323 0 0 1 5.491 2.41l1.148-2.185c-1.602-.64-2.705-1.1-3.382-1.389l-1.22-.442a10.657 10.657 0 0 0 2.101-3.943h2.982V13.31h-8.402c.267-.586.578-1.218.952-1.895l-2.58-.73c-.321.875-.677 1.723-1.087 2.625h-4.877zm5.482 3.943c.4.154 1.015.388 1.78.731q.819.361 1.228.514a7.23 7.23 0 0 0 1.896-2.995h-3.925c-.359.562-.683 1.147-.97 1.75h-.009zM146.246 20.692v2.039l14.633-.01v-2.039h-6.097v-2.12h4.815v-2.193h-4.815v-1.75h3.16v-1.462c.703.55 1.45 1.038 2.233 1.462a1.68 1.68 0 0 1 .267-.37q.748-1.1 1.229-1.678a16.649 16.649 0 0 1-6.711-5.55l.4-.658h-2.777q-1.833 3.438-7.04 6.424a37.887 37.887 0 0 1 1.486 2.049 97.12 97.12 0 0 0 2.234-1.607v1.399h3.08v1.75h-4.806v2.193h4.806v2.12h-6.097zm4.067-8.328a19.465 19.465 0 0 0 3.258-3.51c.906 1.326 2 2.509 3.249 3.51h-6.507zM57.054 10.82l1.522-1.732.018-.027a26.27 26.27 0 0 0-2.715-2.842l-1.495 1.615c.958.931 1.85 1.93 2.67 2.987zm5.385 1.444a6.93 6.93 0 0 0 1.166-3.519l.74-.027v3.131c-.026.435.083.867.31 1.236.173.288.458.488.784.55.399.076.805.11 1.21.1a4.398 4.398 0 0 0 2.59-.487c.368-.327.571-.804.552-1.3V10.74l-1.78-.288c.022.377-.005.757-.08 1.127l-.32.172h-.97l-.312-.325V8.718h1.94v1.426h1.905V6.832H58.657v3.492h1.931V8.745h.97a5.226 5.226 0 0 1-.765 2.256 6.836 6.836 0 0 1-2.163 2.012l1.068 1.606a8.192 8.192 0 0 0 2.741-2.355zm-4.266 1.09-1.51 1.78a40.846 40.846 0 0 0-2.6-2.969l1.442-1.633a32.005 32.005 0 0 1 2.668 2.821zm0 0 .02-.025-.017.027-.003-.003zm4.854 6.03a17.05 17.05 0 0 1-4.69 3.302l-1.042-1.868a15.537 15.537 0 0 0 4.646-3.456h-3.31v-2.021h4.396V13.69h2.323v1.651h4.7v2.021h-3.792a16.407 16.407 0 0 0 4.682 3.357l-1.202 2.12a16.849 16.849 0 0 1-4.406-3.41v3.79H63.01l.018-3.836zm-4.78-2.897a21.92 21.92 0 0 1-2.145 6.695l-2.02-1.065a26.761 26.761 0 0 0 2.09-6.316l2.075.686zM77.41 23.399h-2.297v-8.004c-.285.55-.658 1.173-1.086 1.868l-1.54-1.407a26.095 26.095 0 0 0 2.021-4.115 25.246 25.246 0 0 0 1.584-5.161h2.341a24.333 24.333 0 0 1-1.477 5.062h.454v11.757zm10.076-14.87V6.724H79.84v1.805h7.646zm1.78 2.815V9.323l-11.438.027v1.994h11.438zm-.989 2.536v-1.742h-9.496v1.742h9.496zm0 2.553V14.71h-9.496v1.723h9.496zm-7.547 6.072h5.599l-.018.569h2.358v-5.712H78.443v5.793h2.287v-.65zm0-1.696v-1.741h5.58v1.741h-5.58zM99.304 23.137h2.172l.018-1.128.97 1.065a25.745 25.745 0 0 0 1.78-1.994 16.798 16.798 0 0 0 2.163 1.994l1.29-1.606a10.744 10.744 0 0 1-2.18-2.093c.368-.67.698-1.36.988-2.067.247-.668.426-1.36.534-2.066a17.46 17.46 0 0 0 .124-2.174h-5.687V8.466h3.373V9.89c0 .298-.142.443-.454.443h-1.504l.285 2.012h2.011c.478.004.94-.177 1.291-.506.35-.304.549-.75.543-1.218V6.58h-7.717v16.557zm-.978-1.588a1.39 1.39 0 0 1-.463 1.083c-.328.3-.76.455-1.202.433h-1.869l-.24-2.12h1.308c.294 0 .428-.136.428-.37v-3.988h-1.603a16.852 16.852 0 0 1-1.61 6.704l-1.62-.903c.462-1.205.782-2.462.952-3.744.2-1.296.308-2.605.32-3.916V6.67h5.59v14.915l.009-.036zm-2.039-10.846V8.43H94.74v2.273h1.548zm0 4.196v-2.454H94.74v2.454h1.548zm8.607.1a8.973 8.973 0 0 1-.719 2.525 9.624 9.624 0 0 1-.981-2.526h1.7zm-.719 2.525.016.028-.045.036.03-.064zm-2.699-1.01v4.701a22.317 22.317 0 0 0 1.46-1.705 16.971 16.971 0 0 1-1.451-3.032l-.009.036z" fill-rule="evenodd" fill="#221F20" style="mix-blend-mode:passthrough"/></g></g></svg>