<svg xmlns="http://www.w3.org/2000/svg" fill="none" width="82" height="22"><defs><linearGradient x1=".258" y1="-.069" x2=".745" y2="1.074" id="a"><stop offset="0%" stop-color="#47ACFF"/><stop offset="100%" stop-color="#3F66FB"/></linearGradient></defs><g style="mix-blend-mode:passthrough"><rect width="82" height="22" rx="11" fill="#1C6EFF" style="opacity:.1165437251329422;mix-blend-mode:passthrough"/><circle cx="11" cy="11" fill="url(#a)" r="11" style="mix-blend-mode:passthrough"/><path d="M30.305 10.79v.839h2.75v3.312h-3.242v.852h7.527v-.852h-3.41V11.63h2.87v-.84h-2.87V8.56h-.875v2.23h-2.75zm-1.93.526v4.922h.852v-5.906a14.783 14.783 0 0 0 1.68-2.652h6.421v-.852H31.29c.219-.516.398-1.055.566-1.605l-.902-.11a14.214 14.214 0 0 1-.621 1.715H26.84v.852h3.082c-.84 1.597-2.004 3.015-3.504 4.25l.539.707c.504-.418.973-.864 1.418-1.32zm14.398 2.496c-1.175.458-2.554.829-4.14 1.094l.11.84c1.51-.277 2.855-.648 4.03-1.105v-.829zm-2.136-8.675c-.477 1.43-1.043 2.699-1.692 3.804-.105.157-.226.266-.36.313l.204.793c.672-.086 1.344-.168 2.004-.266-.621 1.117-1.164 1.91-1.605 2.364-.11.097-.243.18-.399.253l.242.793c1.153-.156 2.352-.445 3.61-.855v-.777c-.864.285-1.727.515-2.59.683.695-.851 1.582-2.293 2.64-4.32l-.77-.29c-.237.481-.48.938-.694 1.368-.54.086-1.082.156-1.621.207.624-.937 1.25-2.187 1.859-3.746l-.828-.324zm7.957 2.183-2.989.422V5.195h-.863v2.668l-1.836.262.133.793 1.727-.254c.011.578.05 1.129.109 1.645l-2.172.347.121.817 2.16-.348c.047.313.094.613.168.926.141.648.325 1.222.551 1.75a10.276 10.276 0 0 1-2.988 1.523l.504.7a9.406 9.406 0 0 0 2.867-1.465c.074.156.168.3.277.441.516.723 1.055 1.082 1.633 1.105.621 0 1.102-.804 1.438-2.386l-.73-.48c-.216 1.284-.493 1.933-.806 1.933-.312 0-.66-.3-1.054-.89-.051-.071-.086-.157-.133-.227.742-.649 1.43-1.442 2.062-2.364l-.683-.468a11.041 11.041 0 0 1-1.727 2.039c-.168-.48-.312-1.02-.433-1.645a8.515 8.515 0 0 1-.094-.625l3.215-.504-.133-.816-3.18.504a37.813 37.813 0 0 1-.11-1.63l3.087-.433-.121-.793zm-1.645-2.16-.672.422c.602.55 1.082 1.066 1.418 1.535l.672-.469c-.336-.418-.804-.91-1.418-1.488zm12.578 7.32h-6.84v3.758h.84v-.515h5.16v.515h.84V12.48zm-6 2.461v-1.68h5.16v1.68h-5.16zm.961-7.812a8.898 8.898 0 0 1-2.93 2.7l.551.671a11.653 11.653 0 0 0 1.5-1.125c.516.453 1.082.863 1.692 1.223-1.27.504-2.88.898-4.813 1.21l.325.77c2.16-.371 3.949-.875 5.367-1.523 1.488.718 3.18 1.14 5.097 1.28l.196-.776c-1.621-.121-3.086-.434-4.395-.95.926-.527 1.633-1.129 2.125-1.812v-.695h-4.43c.192-.254.375-.516.555-.793l-.84-.18zm1.703 3.086a10.932 10.932 0 0 1-2.078-1.344l.04-.039h4.019c-.492.504-1.152.973-1.98 1.383zm4.68-4.117h-4.43c-.144-.36-.273-.696-.418-.985l-.949.145c.157.25.301.527.446.84h-4.395v2.27h.879v-1.49h7.992v1.49h.875v-2.27zM64.184 9.3h1.93v2.004h-1.93V9.3zm1.93-.781h-1.93V6.492h1.93V8.52zm-1.942 3.566h1.941v2.71c0 .434-.156.65-.453.65-.289 0-.59-.024-.926-.048l.204.77h.96c.672 0 1.008-.375 1.008-1.094v-9.36h-3.504v5.759c-.011 1.68-.254 3.074-.73 4.152l.644.602c.493-1.082.782-2.461.856-4.141zm4.559-1.188h.288a7.492 7.492 0 0 0 1.547 3.168 5.911 5.911 0 0 1-1.738 1.414l.453.7a6.513 6.513 0 0 0 1.863-1.489c.551.54 1.2 1.032 1.965 1.477l.434-.734a9.334 9.334 0 0 1-1.906-1.414c.55-.868.945-1.922 1.175-3.157v-.734h-4.081V6.492h3.203c-.024.914-.07 1.5-.157 1.766-.07.18-.18.3-.324.347-.14.036-.347.06-.633.06-.336 0-.601-.013-.804-.013l.226.746h.973c.758 0 1.2-.253 1.344-.746.144-.48.214-1.464.214-2.953h-4.859v10.516h.817v-5.317zm1.03 0h2.282c-.215.946-.54 1.774-.984 2.497a6.67 6.67 0 0 1-1.297-2.497z" fill="#1C6EFF" style="mix-blend-mode:passthrough"/><path d="M4.25 10.438v3.374q0 .111.01.221.012.11.033.219.022.108.054.214.032.105.074.208.043.102.095.2.052.097.113.188.062.092.132.178.07.085.148.163.078.079.164.149.085.07.177.131.092.062.19.114.097.052.199.094.102.043.208.075t.214.053q.108.022.218.033.11.01.221.01h3.472q.043-.122.105-.237.061-.114.14-.218.078-.104.172-.194.093-.09.2-.166.105-.075.222-.133.116-.058.24-.097.124-.04.253-.06.128-.02.258-.02.083 0 .166.009.082.008.164.024.081.016.16.04.08.024.156.056.077.032.15.07.073.04.142.086.069.046.133.098.064.053.123.112.058.058.11.123.054.063.1.133.046.068.085.141.039.074.07.15.032.077.056.156.024.08.04.16.017.082.025.165.008.082.008.165t-.008.165q-.008.083-.024.164-.017.081-.04.16-.025.08-.056.157-.032.076-.071.15-.04.073-.085.142-.046.069-.1.133-.052.064-.11.122-.059.059-.123.111-.064.053-.133.1-.069.045-.142.084-.073.04-.15.071-.076.032-.156.056-.079.024-.16.04-.082.016-.164.024-.083.009-.165.009-.13 0-.26-.02-.128-.02-.252-.06-.124-.04-.24-.097-.117-.058-.223-.133-.106-.075-.2-.166-.093-.09-.171-.194-.079-.104-.14-.218-.062-.115-.105-.238H6.5q-.166 0-.33-.016-.166-.016-.328-.048-.163-.033-.322-.08-.158-.049-.312-.112-.153-.064-.299-.142-.146-.078-.284-.17-.138-.092-.266-.198-.128-.105-.245-.222-.118-.117-.223-.245-.105-.129-.197-.267-.092-.137-.17-.284-.079-.146-.142-.299-.064-.153-.112-.312t-.08-.321q-.032-.163-.049-.328-.016-.165-.016-.33v-4.3c0-.111.09-.2.2-.2h1.018A6.752 6.752 0 0 1 11 3.686l-1.269 1.27A5.633 5.633 0 0 0 5.52 9.168l-.144.143H6.3c.11 0 .2.09.2.2v4.1a.2.2 0 0 1-.2.2h-.725a.2.2 0 0 1-.2-.2v-3.175H4.25zM11 3.688a6.752 6.752 0 0 1 6.657 5.624h1.018c.11 0 .2.09.2.2v5.226a.2.2 0 0 1-.2.2H15.7a.2.2 0 0 1-.2-.2V9.512c0-.11.09-.2.2-.2h.925l-.144-.143a5.633 5.633 0 0 0-4.212-4.213L11 3.687zM8.95 9.311a.2.2 0 0 0-.2.2v1.85c0 .111.09.2.2.2h.725a.2.2 0 0 0 .2-.2v-1.85a.2.2 0 0 0-.2-.2H8.95zm3.375 0a.2.2 0 0 0-.2.2v1.85c0 .111.09.2.2.2h.725a.2.2 0 0 0 .2-.2v-1.85a.2.2 0 0 0-.2-.2h-.725zm5.425 1.126h-1.125v3.374h1.125v-3.374zm-6.188 6.75q-.055 0-.11-.011-.054-.011-.105-.032-.05-.021-.097-.052-.046-.031-.085-.07-.04-.04-.07-.085-.031-.047-.052-.098-.021-.05-.032-.105-.011-.055-.011-.11t.01-.11q.012-.054.033-.105t.052-.098q.03-.046.07-.085.039-.039.085-.07.046-.03.097-.052.051-.02.106-.032.054-.01.11-.01.055 0 .11.01.054.011.105.032.05.021.097.052.046.031.085.07.04.04.07.085.031.047.052.098.021.05.032.105.011.055.011.11t-.01.11q-.012.054-.033.105t-.052.098q-.03.046-.07.085-.039.039-.085.07-.046.03-.097.052-.051.02-.106.032-.054.01-.11.01z" fill-rule="evenodd" fill="#FFF" style="mix-blend-mode:passthrough"/></g></svg>