<svg xmlns="http://www.w3.org/2000/svg" fill="none" width="22" height="22"><g style="mix-blend-mode:passthrough"><path d="M15.761 16.74c2.26-1.182 3.743-2.97 4.292-5.491.054-.25.147-.797.147-1.457 0-.468-.106-1.263-.203-1.628-.848-3.181-2.962-5.062-6.084-5.905a9.557 9.557 0 0 0-1.207-.217c-.508-.066-1.455-.043-1.683-.006-.097.016-.196.043-.26.052-.9.126-1.767.365-2.591.75-.611.285-.814.591-.635.96.212.436.6.503 1.2.23 2.145-.974 4.295-.977 6.407.067 4.287 2.12 4.939 7.614 1.28 10.652-.391.326-.822.59-1.271.832-.51.273-.603.784-.217 1.114.26.221.545.193.825.046zm-5.486 4.613s-2.514-1.684-3.54-2.795C4.07 15.67 2.228 12.323 1.341 8.477A12.617 12.617 0 0 1 1 5.487c.008-.713.335-1.153 1.026-1.353.984-.286 1.967-.571 2.951-.854.674-.194 1.16.03 1.438.658.424.965.847 1.931 1.268 2.898.261.6.093 1.1-.483 1.41-.58.315-1.159.63-1.75.922-.334.165-.47.42-.488.774-.033.674.143 1.306.36 1.933a8.26 8.26 0 0 0 1.933 3.134c.156.158.334.297.514.428.352.253.706.29 1.103.057.534-.313 1.09-.585 1.64-.869.597-.307 1.124-.183 1.523.36.644.876 1.284 1.754 1.922 2.634.364.502.301 1.032-.173 1.431-.809.68-1.629 1.346-2.434 2.03-.177.152-.588.273-.588.273s-.114.04-.24.052a.414.414 0 0 1-.248-.052zm5.803-11.77v.282c.002.252.002.503-.002.754-.002.136.01.226.184.241.273.025.472.181.47.465 0 .28-.187.443-.47.46-.146.008-.193.068-.183.207.006.097.004.195.002.292l-.001.073c-.006.405-.181.578-.575.572-.381-.006-.53-.167-.53-.575-.001-.561-.001-.561-.578-.561a639.323 639.323 0 0 1-1.278 0c-.201 0-.398-.024-.494-.228-.088-.187-.042-.358.07-.542.566-.936 1.115-1.882 1.673-2.824.258-.436.618-.576 1.11-.438.39.11.593.402.6.879.004.213.003.426.003.64l-.001.303zm-5.935 2.383.445-.002c.32-.002.616-.003.911.005.263.007.516.067.6.367.083.3-.112.58-.447.586-.913.016-1.828.01-2.741.002-.188-.002-.37-.07-.444-.267a.536.536 0 0 1 .126-.59c.493-.525.99-1.049 1.474-1.582.177-.195.326-.415.487-.624.087-.114.149-.242.186-.38.081-.3-.05-.611-.302-.724-.267-.12-.564-.029-.736.251-.094.154-.15.332-.227.496-.152.326-.393.429-.721.311-.239-.085-.32-.307-.276-.631.186-1.34 1.927-1.879 2.97-1.077.484.373.647 1.064.392 1.65-.23.528-.59.968-.967 1.395-.227.256-.456.509-.73.814zm4.048-1.116h-.273l.996-1.956.057.005v1.83c0 .125-.083.123-.162.12h-.618z" fill-rule="evenodd" fill="#14161A" style="mix-blend-mode:passthrough"/></g></svg>