<svg xmlns="http://www.w3.org/2000/svg" xmlns:xlink="http://www.w3.org/1999/xlink" fill="none" version="1.1" width="16" height="16" viewBox="0 0 16 16"><g style="mix-blend-mode:passthrough"><g style="mix-blend-mode:passthrough"><ellipse cx="8" cy="8" rx="8" ry="8" fill="#1C6EFF" fill-opacity="1"/></g><g style="mix-blend-mode:passthrough"><path d="M6.46458125,9.829699218750001C4.9691712500000005,10.24574921875,3.72069225,11.25468921875,2.98828125,12.58737921875C2.98828125,12.58737921875,3.05418365,12.47096921875,3.05418365,12.47096921875C4.27410125,13.81954921875,6.03792125,14.66684921875,7.99963125,14.66684921875C9.96103125,14.66684921875,11.72459125,13.81984921875,12.94517125,12.47092921875C12.20513125,11.19601921875,10.986251249999999,10.233569218749999,9.53496125,9.830449218750001C10.65765125,9.26723921875,11.42821125,8.10561921875,11.42821125,6.764019218750001C11.42821125,4.87046921875,9.89318125,3.33544921875,7.99963125,3.33544921875C6.10609125,3.33544921875,4.57106125,4.87046921875,4.57106125,6.764019218750001C4.57106125,8.10561921875,5.34162125,9.26723921875,6.46458125,9.829699218750001Z" fill="#FFFFFF" fill-opacity="1"/></g><g style="mix-blend-mode:passthrough" transform="matrix(0.7071067690849304,-0.7071067690849304,0.7071067690849304,0.7071067690849304,-3.9823032520515937,6.770632801445828)"><path d="M6.252979325177002,9.170597858825683C6.427321025177002,9.829071858825683,6.907865025177002,10.366671858825683,7.539965025177002,10.615491858825683C7.7878950251770025,10.713081858825683,8.053075025177002,10.763811858825683,8.324585025177003,10.763811858825683C8.561275025177002,10.763811858825683,8.753155025177001,10.571931858825684,8.753155025177001,10.335241858825684C8.753155025177001,10.098541858825683,8.561275025177002,9.906671858825684,8.324585025177003,9.906671858825684C8.324585025177003,9.906671858825684,8.227045025177002,9.903041858825684,8.227045025177002,9.903041858825684C8.097905025177003,9.893401858825683,7.972595025177002,9.864631858825684,7.8539150251770025,9.817911858825683C7.474955025177002,9.668741858825683,7.185945025177002,9.345411858825683,7.081571025177002,8.951214858825683C7.053331025177002,8.844553858825684,7.038868025177002,8.733906858825684,7.038868025177002,8.620952858825683C7.038868025177002,8.384259858825683,6.846990025177002,8.192381858825678,6.610296025177002,8.192381858825678C6.373603025177002,8.192381858825678,6.181725025177002,8.384259858825683,6.181725025177002,8.620952858825683C6.181725025177002,8.808124858825684,6.205826625177002,8.992506858825683,6.252979325177002,9.170597858825683Z" fill="#1C6EFF" fill-opacity="1"/></g></g></svg>