<svg xmlns="http://www.w3.org/2000/svg" xmlns:xlink="http://www.w3.org/1999/xlink" fill="none" version="1.1" width="48" height="40" viewBox="0 0 48 40"><defs><linearGradient x1="1" y1="0.5" x2="0" y2="0.5" id="master_svg0_2449_008443"><stop offset="1.4285714365541935%" stop-color="#4C8CFF" stop-opacity="0.10000000149011612"/><stop offset="99.28571581840515%" stop-color="#1C6EFF" stop-opacity="0.4000000059604645"/></linearGradient><mask id="master_svg1_2455_084280/2449_008463"><g style="mix-blend-mode:passthrough"><rect x="0" y="0" width="48" height="40" rx="0" fill="#FFFFFF" fill-opacity="1"/></g></mask><filter id="master_svg2_2455_084280/2449_008446" filterUnits="objectBoundingBox" color-interpolation-filters="sRGB" x="-120" y="-120" width="322" height="282"><feFlood flood-opacity="0" result="BackgroundImageFix"/><feBlend mode="normal" in="SourceGraphic" in2="BackgroundImageFix" result="shape"/><feGaussianBlur stdDeviation="30" result="effect1_foregroundBlur"/></filter><filter id="master_svg3_2455_084280/2449_008448" filterUnits="objectBoundingBox" color-interpolation-filters="sRGB" x="-20" y="-20" width="45" height="67.36842155456543"><feFlood flood-opacity="0" result="BackgroundImageFix"/><feBlend mode="normal" in="SourceGraphic" in2="BackgroundImageFix" result="shape"/><feGaussianBlur stdDeviation="5" result="effect1_foregroundBlur"/></filter><filter id="master_svg4_2455_084280/2449_008449" filterUnits="objectBoundingBox" color-interpolation-filters="sRGB" x="-20" y="-20" width="45" height="67.36842155456543"><feFlood flood-opacity="0" result="BackgroundImageFix"/><feBlend mode="normal" in="SourceGraphic" in2="BackgroundImageFix" result="shape"/><feGaussianBlur stdDeviation="5" result="effect1_foregroundBlur"/></filter><filter id="master_svg5_2455_084280/2449_008464" filterUnits="objectBoundingBox" color-interpolation-filters="sRGB" x="-40" y="-40" width="90" height="113.68421173095703"><feFlood flood-opacity="0" result="BackgroundImageFix"/><feBlend mode="normal" in="SourceGraphic" in2="BackgroundImageFix" result="shape"/><feGaussianBlur stdDeviation="10" result="effect1_foregroundBlur"/></filter><filter id="master_svg6_2455_084280/2449_008447" filterUnits="objectBoundingBox" color-interpolation-filters="sRGB" x="-40" y="-40" width="116" height="113.68421173095703"><feFlood flood-opacity="0" result="BackgroundImageFix"/><feBlend mode="normal" in="SourceGraphic" in2="BackgroundImageFix" result="shape"/><feGaussianBlur stdDeviation="10" result="effect1_foregroundBlur"/></filter><filter id="master_svg7_2455_084280/2449_008454" filterUnits="objectBoundingBox" color-interpolation-filters="sRGB" x="-2" y="-2" width="6" height="44"><feFlood flood-opacity="0" result="BackgroundImageFix"/><feBlend mode="normal" in="SourceGraphic" in2="BackgroundImageFix" result="shape"/><feGaussianBlur stdDeviation="0.5" result="effect1_foregroundBlur"/></filter><linearGradient x1="0.5" y1="0" x2="0.5" y2="1" id="master_svg8_2449_008457"><stop offset="0%" stop-color="#1C6EFF" stop-opacity="0"/><stop offset="38.57142925262451%" stop-color="#1C6EFF" stop-opacity="1"/><stop offset="66.42857193946838%" stop-color="#458FFF" stop-opacity="0.7386153340339661"/><stop offset="100%" stop-color="#1C6EFF" stop-opacity="0"/></linearGradient><filter id="master_svg9_2455_084280/2449_008450" filterUnits="objectBoundingBox" color-interpolation-filters="sRGB" x="-12" y="-12" width="35" height="64"><feFlood flood-opacity="0" result="BackgroundImageFix"/><feBlend mode="normal" in="SourceGraphic" in2="BackgroundImageFix" result="shape"/><feGaussianBlur stdDeviation="3" result="effect1_foregroundBlur"/></filter><linearGradient x1="0.5" y1="-0.22659943997859955" x2="0.5" y2="1.1948891878128052" id="master_svga_2449_008453"><stop offset="0%" stop-color="#1C6EFF" stop-opacity="0"/><stop offset="51.82328820228577%" stop-color="#D0E2FF" stop-opacity="1"/><stop offset="99.99999403953552%" stop-color="#1C6EFF" stop-opacity="0"/></linearGradient><linearGradient x1="0.5" y1="-0.22659943997859955" x2="0.5" y2="1.1948891878128052" id="master_svgb_2449_008462"><stop offset="0%" stop-color="#1C6EFF" stop-opacity="0"/><stop offset="51.82328820228577%" stop-color="#D0E2FF" stop-opacity="1"/><stop offset="99.99999403953552%" stop-color="#1C6EFF" stop-opacity="0"/></linearGradient></defs><g style="mix-blend-mode:passthrough"><g style="opacity:0.6000000238418579;mix-blend-mode:passthrough"><rect x="0" y="0" width="48" height="40" rx="0" fill="url(#master_svg0_2449_008443)" fill-opacity="1"/></g><g style="mix-blend-mode:passthrough" mask="url(#master_svg1_2455_084280/2449_008463)"><g style="opacity:0.20000000298023224;mix-blend-mode:passthrough" filter="url(#master_svg2_2455_084280/2449_008446)"><path d="M-34,20C-34,31.598,-24.59798,41,-13,41L27,41C38.598,41,48,31.598,48,20C48,8.40202,38.598,-1,27,-1L-13,-1C-24.59798,-1,-34,8.40202,-34,20Z" fill="#1C6EFF" fill-opacity="1"/></g><g style="mix-blend-mode:passthrough" filter="url(#master_svg3_2455_084280/2449_008448)"><path d="M-2,8.815789699554443L-2,31.184189699554445C-2,32.56488969955444,-0.8807100000000001,33.684189699554445,0.5,33.684189699554445C1.88071,33.684189699554445,3,32.56488969955444,3,31.184189699554445L3,19.999989699554444L3,8.815789699554443C3,7.435079699554443,1.88071,6.315789699554443,0.5,6.315789699554443C-0.8807100000000001,6.315789699554443,-2,7.435079699554443,-2,8.815789699554443Z" fill="#458FFF" fill-opacity="1"/></g><g style="mix-blend-mode:passthrough" filter="url(#master_svg4_2455_084280/2449_008449)"><path d="M-2,8.815789699554443L-2,31.184189699554445C-2,32.56488969955444,-0.8807100000000001,33.684189699554445,0.5,33.684189699554445C1.88071,33.684189699554445,3,32.56488969955444,3,31.184189699554445L3,19.999989699554444L3,8.815789699554443C3,7.435079699554443,1.88071,6.315789699554443,0.5,6.315789699554443C-0.8807100000000001,6.315789699554443,-2,7.435079699554443,-2,8.815789699554443Z" fill="#6EADFF" fill-opacity="1"/></g><g style="mix-blend-mode:passthrough" filter="url(#master_svg5_2455_084280/2449_008464)"><path d="M-4,31.842094849777222C-4,34.60349484977722,-1.7614200000000002,36.84209484977722,1,36.84209484977722C3.76142,36.84209484977722,6,34.60349484977722,6,31.842094849777222L6,19.99999484977722L6,8.157894849777222C6,5.3964748497772215,3.76142,3.1578948497772217,1,3.1578948497772217C-1.7614200000000002,3.1578948497772217,-4,5.3964748497772215,-4,8.157894849777222L-4,31.842094849777222Z" fill="#1C6EFF" fill-opacity="1"/></g><g style="opacity:0.30000001192092896;mix-blend-mode:passthrough" filter="url(#master_svg6_2455_084280/2449_008447)"><path d="M-26,19.99999484977722C-26,29.30159484977722,-18.45953,36.84209484977722,-9.157900000000001,36.84209484977722L-6.8420999999999985,36.84209484977722C2.4594999999999985,36.84209484977722,10,29.30159484977722,10,19.99999484977722C10,10.69836484977722,2.4594999999999985,3.1578948497772217,-6.8420999999999985,3.1578948497772217L-9.157900000000001,3.1578948497772217C-18.45953,3.1578948497772217,-26,10.69836484977722,-26,19.99999484977722Z" fill="#1C6EFF" fill-opacity="1"/></g><g style="mix-blend-mode:passthrough" filter="url(#master_svg7_2455_084280/2449_008454)"><path d="M0,40L2,40L2,20L2,0L0,0L0,40Z" fill="url(#master_svg8_2449_008457)" fill-opacity="1"/></g><g style="opacity:0.5;mix-blend-mode:passthrough" filter="url(#master_svg9_2455_084280/2449_008450)"><path d="M-8,0L-8,40L3,40L3,20L3,0L-8,0Z" fill="url(#master_svga_2449_008453)" fill-opacity="1"/></g><g style="mix-blend-mode:passthrough"><path d="M0,0L0,40L1,40L1,20L1,0L0,0Z" fill="url(#master_svgb_2449_008462)" fill-opacity="1"/></g></g></g></svg>