<svg xmlns="http://www.w3.org/2000/svg" xmlns:xlink="http://www.w3.org/1999/xlink" fill="none"
  version="1.1" width="35" height="35" viewBox="0 0 35 35">
  <defs>
    <linearGradient x1="2.9802322387695312e-8" y1="0.6596808433532715" x2="1"
      y2="0.6596808433532715" id="master_svg0_6601_106518">
      <stop offset="0.7142857182770967%" stop-color="#EDF4FF" stop-opacity="1" />
      <stop offset="100%" stop-color="#ACB6C4" stop-opacity="1" />
    </linearGradient>
  </defs>
  <g style="opacity:0.30000001192092896;mix-blend-mode:passthrough">
    <path
      d="M0,11.0833L0,0.583333C0,0.261167,0.261167,0,0.583333,0L14,0C14.3222,0,14.5833,0.261167,14.5833,0.583333L14.5833,11.0833C14.5833,11.4055,14.3222,11.6667,14,11.6667L0.583333,11.6667C0.261167,11.6667,0,11.4055,0,11.0833ZM0,34.4167L0,18.0833C0,17.7612,0.261167,17.5,0.583333,17.5L14,17.5C14.3222,17.5,14.5833,17.7612,14.5833,18.0833L14.5833,34.4167C14.5833,34.7388,14.3222,35,14,35L0.583333,35C0.261167,35,0,34.7388,0,34.4167ZM20.4167,34.4167L20.4167,23.9167C20.4167,23.5945,20.6778,23.3333,21,23.3333L34.4167,23.3333C34.7388,23.3333,35,23.5945,35,23.9167L35,34.4167C35,34.7388,34.7388,35,34.4167,35L21,35C20.6778,35,20.4167,34.7388,20.4167,34.4167ZM20.4167,16.9167L20.4167,0.583333C20.4167,0.261167,20.6778,0,21,0L34.4167,0C34.7388,0,35,0.261167,35,0.583333L35,16.9167C35,17.2388,34.7388,17.5,34.4167,17.5L21,17.5C20.6778,17.5,20.4167,17.2388,20.4167,16.9167Z"
      fill="url(#master_svg0_6601_106518)" fill-opacity="1" />
  </g>
</svg>