<svg xmlns="http://www.w3.org/2000/svg" xmlns:xlink="http://www.w3.org/1999/xlink" fill="none"
  version="1.1" width="40" height="42" viewBox="0 0 40 42">
  <defs>
    <linearGradient x1="2.9802322387695312e-8" y1="0.6596808433532715" x2="1"
      y2="0.6596808433532715" id="master_svg0_8409_113671">
      <stop offset="5.914219468832016%" stop-color="#EDF4FF" stop-opacity="1" />
      <stop offset="100%" stop-color="#ACB6C4" stop-opacity="1" />
    </linearGradient>
  </defs>
  <g style="opacity:0.30000001192092896;mix-blend-mode:passthrough">
    <path
      d="M35.8483,17.5121C33.0274,13.8374,28.6003,11.6747,23.8988,11.6747C15.6495,11.6747,8.96207,18.2084,8.96207,26.2681C8.96207,30.8615,11.1756,35.1868,14.9368,37.9428L0.59748,37.9428C0.267502,37.9428,0,37.6815,0.00000894402,37.3591L0.0000444817,35.0397L0.0000444817,0.583735C0.0000444817,0.261348,0.267541,0,0.597516,0L26.6677,0C26.814,0,26.9498,0.0552009,27.0591,0.15018L35.6518,7.61242C35.7793,7.72319,35.8483,7.88452,35.8483,8.05125L35.8483,11.6747L35.8483,17.5121ZM5.97471,11.091L5.97471,6.4211C5.97471,6.09871,6.24221,5.83736,6.57218,5.83736L14.3393,5.83736C14.6693,5.83736,14.9368,6.09871,14.9368,6.4211L14.9368,11.091C14.9368,11.4134,14.6693,11.6747,14.3393,11.6747L6.57218,11.6747C6.24221,11.6747,5.97471,11.4134,5.97471,11.091ZM24.7612,17.5521C24.4358,17.5177,24.1052,17.5,23.7704,17.5C18.7813,17.5,14.7368,21.4221,14.7368,26.2604C14.7368,31.039,18.6822,34.9239,23.5864,35.0189C23.6901,35.0224,23.7943,35.0242,23.8988,35.0242C25.2117,35.0242,26.5083,34.7423,27.697,34.199L35.5649,41.8289C35.6865,41.9469,35.8473,42.0039,36.0067,41.9998C36.1648,42.0039,36.3243,41.9469,36.445,41.829L39.825,38.5267C39.9447,38.4098,40.003,38.2557,39.9999,38.1025C39.9974,37.9562,39.9387,37.8107,39.8236,37.6991L39.7233,37.6018L31.9857,30.0421C32.5619,28.8636,32.8609,27.5741,32.8609,26.2681C32.8609,21.7165,29.3062,17.976,24.7612,17.5521ZM26.7816,26.2604C26.7816,27.8731,25.4334,29.1805,23.7704,29.1805C23.7409,29.1805,23.7116,29.1801,23.6824,29.1793C22.1336,29.0709,20.9115,27.809,20.9115,26.2681C20.9115,24.6562,22.249,23.3494,23.8988,23.3494C23.9532,23.3494,24.0073,23.3509,24.061,23.3537C25.5877,23.4954,26.7816,24.7427,26.7816,26.2604Z"
      fill-rule="evenodd" fill="url(#master_svg0_8409_113671)" fill-opacity="1" />
  </g>
</svg>