<svg xmlns="http://www.w3.org/2000/svg" xmlns:xlink="http://www.w3.org/1999/xlink" fill="none"
  version="1.1" width="46" height="46" viewBox="0 0 46 46">
  <defs>
    <linearGradient x1="2.9802322387695312e-8" y1="0.6596808433532715" x2="1.4072238206863403"
      y2="0.6596808433532715" id="master_svg0_8409_113967_active">
      <stop offset="8.571431040763855%" stop-color="#EDF4FF" stop-opacity="1" />
      <stop offset="100%" stop-color="#C3D5FF" stop-opacity="1" />
    </linearGradient>
  </defs>
  <g style="mix-blend-mode:passthrough">
    <path
      d="M0.856729,17.1325C-0.283749,16.7502,-0.294673,16.1327,0.878577,15.7394C0.878577,15.7394,44.4237,0.11201,44.4237,0.11201C45.5795,-0.274721,46.2415,0.375657,45.9181,1.51388C45.9181,1.51388,32.1586,45.1002,32.1586,45.1002C31.8309,46.2626,31.1645,46.3022,30.6751,45.1991C30.6751,45.1991,22.8229,27.4271,22.8229,27.4271C22.8229,27.4271,35.9319,11.4964,35.9319,11.4964C35.9319,11.4964,18.4533,23.0324,18.4533,23.0324C18.4533,23.0324,0.856729,17.1325,0.856729,17.1325Z"
      fill="url(#master_svg0_8409_113967_active)" fill-opacity="1" />
  </g>
</svg>