<svg xmlns="http://www.w3.org/2000/svg" xmlns:xlink="http://www.w3.org/1999/xlink" fill="none"
  version="1.1" width="39" height="39" viewBox="0 0 39 39">
  <defs>
    <linearGradient x1="2.9802322387695312e-8" y1="0.6596808433532715" x2="1"
      y2="0.6596808433532715" id="master_svg0_6601_106518_active">
      <stop offset="0.7142857182770967%" stop-color="#EDF4FF" stop-opacity="1" />
      <stop offset="100%" stop-color="#C3D5FF" stop-opacity="1" />
    </linearGradient>
  </defs>
  <g style="mix-blend-mode:passthrough">
    <path
      d="M16.7143,0L39,0L39,27.8571L33.4286,27.8571L33.4286,5.57143L16.7143,5.57143L16.7143,0ZM0,38.4429L0,11.7C0,11.3923,0.249441,11.1429,0.557143,11.1429L27.3,11.1429C27.6077,11.1429,27.8571,11.3923,27.8571,11.7L27.8571,38.4429C27.8571,38.7506,27.6077,39,27.3,39L0.557143,39C0.249441,39,0,38.7506,0,38.4429ZM12.5357,32.0991L23.9808,20.6541L20.041,16.7143L12.3042,24.451L8.47659,20.6234L4.53699,24.563L12.2908,32.3167L12.522,32.0855L12.5357,32.0991Z"
      fill-rule="evenodd" fill="url(#master_svg0_6601_106518_active)" fill-opacity="1" />
  </g>
</svg>