<svg xmlns="http://www.w3.org/2000/svg" xmlns:xlink="http://www.w3.org/1999/xlink" fill="none" version="1.1" width="136.2890625" height="26" viewBox="0 0 136.2890625 26"><defs><linearGradient x1="1.1284708976745605" y1="-0.052418604493141174" x2="0.023633798584342003" y2="-0.21325747668743134" id="master_svg0_3369_017165"><stop offset="0%" stop-color="#1C6EFF" stop-opacity="1"/><stop offset="27.114933729171753%" stop-color="#1C6EFF" stop-opacity="1"/><stop offset="100%" stop-color="#57C7FC" stop-opacity="1"/></linearGradient><linearGradient x1="7.549515720418117e-15" y1="1.1301857233047485" x2="1.349501609802246" y2="1.1301857233047485" id="master_svg1_3369_017172"><stop offset="0%" stop-color="#20CC94" stop-opacity="1"/><stop offset="100%" stop-color="#40E0AC" stop-opacity="1"/></linearGradient></defs><g style="mix-blend-mode:passthrough"><g style="mix-blend-mode:passthrough"><g style="mix-blend-mode:passthrough"><path d="M0,11.889673974761962C0,19.682613974761964,6.2917,26.000013974761963,14.0529,26.000013974761963C18.9853,26.000013974761963,23.3243,23.448413974761962,25.8319,19.588213974761963C25.8835,19.508813974761964,25.9262,19.424913974761964,25.9603,19.336813974761963C26.6206,18.22771397476196,27,16.93061397476196,27,15.544513974761962C27,14.969413974761963,26.9347,14.409703974761962,26.8111,13.872353974761962L26.7892,13.779873974761962L26.7662,13.687843974761963L26.7573,13.653773974761963L26.7401,13.589203974761963L26.7156,13.501503974761963L26.6967,13.436433974761963L26.6653,13.332873974761963L26.6396,13.252023974761963L26.6276,13.215243974761963C26.6022,13.138283974761963,26.5756,13.061883974761964,26.5478,12.986093974761962C26.5296,12.936563974761963,26.511,12.887293974761963,26.4918,12.838293974761964L26.4551,12.746453974761963L26.4192,12.659793974761964L26.3719,12.550173974761963L26.3345,12.466753974761962L26.2907,12.372433974761963L26.2524,12.292713974761963L26.226,12.239043974761962L26.1953,12.178143974761962C26.172,12.132423974761963,26.1482,12.086973974761964,26.124,12.041763974761963C26.1008,11.998513974761963,26.0772,11.955523974761963,26.0532,11.912803974761964L26.0187,11.852023974761963L25.9631,11.756793974761962L25.9038,11.658843974761963L25.8431,11.561843974761963L25.7899,11.479563974761962L25.7227,11.378893974761963L25.683,11.320983974761962L25.6424,11.262953974761963L25.5754,11.169893974761962L25.5325,11.111743974761964L25.488,11.052653974761963L25.4269,10.973553974761963C25.3919,10.928773974761963,25.3563,10.884403974761963,25.3202,10.840493974761962L25.2939,10.808583974761962L25.2212,10.722353974761962L25.1471,10.637053974761962L25.1002,10.584423974761963L25.0419,10.520323974761963L24.9767,10.450473974761962L24.9024,10.373003974761962L24.8298,10.299353974761964L24.7535,10.224143974761962L24.6934,10.166433974761963L24.6398,10.116023974761962L24.5642,10.046633974761964L24.5005,9.989543974761963C24.4544,9.948763974761963,24.4078,9.908563974761963,24.3607,9.868993974761963L24.35,9.859963974761964L24.2703,9.794003974761964L24.2002,9.737623974761963L24.124,9.677853974761963L24.0533,9.623843974761963C23.9993,9.583093974761962,23.9448,9.543073974761963,23.8896,9.503893974761963L23.806,9.445023974761963C23.7613,9.414113974761964,23.7162,9.383693974761963,23.6708,9.353803974761963L23.656,9.343953974761963L23.5882,9.299973974761963C22.4443,8.567063974761963,21.0855,8.142343974761964,19.628,8.142343974761964L6.00107,8.142423974761963C6.56835,11.401653974761963,9.40048,13.879003974761963,12.8089,13.879003974761963L19.364,13.879163974761964C19.6463,13.879173974761963,19.7939,14.216653974761963,19.5993,14.421183974761963L19.5533,14.465843974761963L19.5076,14.509593974761962C19.4625,14.552603974761963,19.4169,14.595213974761963,19.371,14.637383974761963C19.2884,14.713223974761963,19.2046,14.787703974761962,19.1195,14.860793974761963L19.0582,14.913013974761963L19.0101,14.953413974761963L18.9121,15.034213974761963L18.8547,15.080713974761963L18.7992,15.124813974761963L18.7331,15.176713974761963L18.6622,15.231313974761964L18.5426,15.321213974761962C18.4745,15.371713974761963,18.4057,15.421313974761963,18.3363,15.470013974761963L18.2671,15.518213974761963L18.1974,15.565913974761964L18.1412,15.603713974761963L18.0645,15.654513974761963L17.9752,15.712313974761964L17.889,15.766913974761962L17.8198,15.809913974761963L17.7439,15.856113974761962L17.6635,15.904013974761963L17.5897,15.947213974761963L17.4749,16.012713974761965C17.4116,16.048213974761964,17.3479,16.083113974761964,17.2838,16.117413974761963L17.2034,16.159813974761963L17.1296,16.198013974761963L17.046,16.24031397476196L16.9668,16.27951397476196L16.8962,16.313713974761963L16.8138,16.35271397476196L16.7399,16.387013974761963L16.6413,16.431613974761962L16.5334,16.478913974761962L16.4799,16.501813974761962L16.3558,16.553613974761962C16.2941,16.578913974761964,16.232,16.603613974761963,16.1696,16.627613974761964C16.1269,16.644113974761964,16.0842,16.660313974761962,16.0412,16.676213974761964L15.9595,16.706113974761962L15.867,16.738913974761964L15.7812,16.768513974761962L15.6906,16.798813974761963L15.578,16.835113974761963L15.528,16.850713974761963L15.4454,16.87601397476196L15.3757,16.896613974761962L15.2537,16.931513974761963L15.1848,16.95051397476196C15.1446,16.96141397476196,15.1044,16.97211397476196,15.064,16.982513974761964L14.977,17.004513974761963L14.892,17.025313974761964L14.7947,17.04811397476196L14.7131,17.066413974761964L14.632,17.083913974761963L14.5394,17.103013974761964L14.4434,17.121913974761963L14.3606,17.137413974761962L14.2859,17.150713974761963L14.1885,17.167313974761964L14.0861,17.183713974761964L13.9586,17.202513974761963C13.9027,17.210413974761963,13.8466,17.217913974761963,13.7903,17.22491397476196C13.7553,17.22921397476196,13.7202,17.233413974761962,13.6851,17.237413974761964L13.5612,17.250713974761965L13.4615,17.260313974761964L13.3664,17.268513974761962L13.3178,17.27241397476196L13.2242,17.279113974761962L13.1338,17.284913974761963L13.0436,17.289813974761962L12.9495,17.294013974761963L12.8499,17.297613974761965L12.7255,17.300713974761962L12.6294,17.302013974761962L12.533,17.30241397476196L12.3648,17.30111397476196C6.84387,17.21121397476196,2.3959,12.689463974761964,2.3959,7.124553974761962C2.3959,6.583783974761963,2.43791,6.052873974761963,2.51881,5.534911974761963L2.53155,5.455752974761963L2.52936,5.455082974761963C2.53789,5.420661974761963,2.54242,5.384651974761963,2.54242,5.347578974761963C2.54242,5.1025499747619625,2.3446,4.903913974761963,2.10056,4.903913974761963C1.93113,4.903913974761963,1.78397,4.999668074761963,1.70927,5.1395889747619625C0.61941,7.144643974761963,0,9.444533974761963,0,11.889673974761962Z" fill="url(#master_svg0_3369_017165)" fill-opacity="1"/></g><g style="mix-blend-mode:passthrough"><path d="M6.000945091247559,5.73591L6.018509691247559,5.63913C6.624759091247559,2.4281,9.43429509124756,0,12.80862509124756,0L26.53904509124756,0C26.53904509124756,3.16827,23.98104509124756,5.73665,20.82564509124756,5.73665L6.081668591247559,5.73665L6.000945091247559,5.73591ZM26.812445091247557,13.879L12.808745091247559,13.879C9.400355091247558,13.879,6.568227091247558,11.4016,6.000945091247559,8.14241L19.627845091247558,8.14233C21.085445091247557,8.14233,22.44414509124756,8.56705,23.588045091247558,9.29996L23.65584509124756,9.34394L23.670645091247557,9.35379C23.716045091247558,9.38368,23.76114509124756,9.4141,23.80584509124756,9.44501L23.88954509124756,9.50388C23.94464509124756,9.54306,23.99924509124756,9.58308,24.053245091247557,9.62383L24.12384509124756,9.67784L24.20004509124756,9.73761L24.27014509124756,9.79399L24.34984509124756,9.85995L24.36064509124756,9.86898C24.40774509124756,9.90855,24.454245091247557,9.94876,24.50034509124756,9.98953L24.564145091247557,10.0466L24.63964509124756,10.116L24.693245091247558,10.1664L24.75334509124756,10.2241L24.82964509124756,10.2993L24.902245091247558,10.373L24.97654509124756,10.4505L25.04174509124756,10.5203L25.10004509124756,10.5844L25.14694509124756,10.637L25.221145091247557,10.7223L25.29374509124756,10.8086L25.320145091247557,10.8405C25.35614509124756,10.8844,25.391745091247557,10.9288,25.426745091247557,10.9735L25.487845091247557,11.0526L25.53234509124756,11.1117L25.57534509124756,11.1699L25.64224509124756,11.2629L25.682845091247557,11.321L25.722645091247557,11.3789L25.789745091247557,11.4796L25.842945091247557,11.5618L25.903645091247558,11.6588L25.96294509124756,11.7568L26.01854509124756,11.852L26.053145091247558,11.9128C26.07714509124756,11.9555,26.100745091247557,11.9985,26.12384509124756,12.0418C26.14814509124756,12.087,26.171845091247558,12.1324,26.195145091247557,12.1781L26.22584509124756,12.239L26.25224509124756,12.2927L26.29054509124756,12.3724L26.33434509124756,12.4667L26.371845091247557,12.5502L26.419045091247558,12.6598L26.45504509124756,12.7464L26.49164509124756,12.8383C26.510845091247557,12.8873,26.52954509124756,12.9366,26.54764509124756,12.9861C26.57544509124756,13.0619,26.602045091247557,13.1383,26.62744509124756,13.2152L26.63954509124756,13.252L26.66524509124756,13.3329L26.696645091247557,13.4364L26.71554509124756,13.5015L26.73994509124756,13.5892L26.757245091247558,13.6538L26.76604509124756,13.6878L26.78914509124756,13.7799L26.810945091247557,13.8723L26.812445091247557,13.879Z" fill-rule="evenodd" fill="url(#master_svg1_3369_017172)" fill-opacity="1"/></g></g><g style="mix-blend-mode:passthrough"><path d="M40.22528,15.3743C38.83314,15.3743,37.5745,14.70681,36.67819,13.75329L35,15.2598C36.50656,16.8427,38.45173,17.472,40.12992,17.472C42.87605,17.472,45.4124,15.9655,45.4124,13.46724C45.4124,8.48987,37.68892,11.17879,37.68892,8.48987C37.68892,7.7652,38.37545,6.86889,40.20621,6.86889C41.3695,6.86889,42.36116,7.23123,43.44817,8.29917L45.0882,6.83075C43.90585,5.629321,42.30395,5,40.32063,5C37.59357,5,35.362337,6.46842,35.362337,8.6043C35.362337,13.48631,43.08583,10.91181,43.08583,13.58166C43.08583,14.72588,41.90347,15.3552,40.22528,15.3743ZM114.7268,6.10608C114.7268,5.495829,114.231,5,113.6207,5C113.0105,5,112.5146,5.495829,112.5146,6.10608C112.5146,6.71633,113.0105,7.21216,113.6207,7.21216C114.231,7.21216,114.7268,6.71633,114.7268,6.10608ZM85.07220000000001,5.247803L80.01859999999999,5.247803L80.01859999999999,17.224L85.07220000000001,17.224C89.0198,17.224,91.49889999999999,14.40157,91.49889999999999,11.235890000000001C91.49889999999999,8.07021,89.1151,5.247803,85.07220000000001,5.247803ZM82.231,7.3457L85.0724,7.3457C87.6469,7.3457,89.287,9.119250000000001,89.287,11.236049999999999C89.287,13.35286,87.6469,15.1264,85.0724,15.1264L82.231,15.1264L82.231,7.3457ZM51.6738,7.746090000000001C53.599900000000005,7.746090000000001,56.460499999999996,9.32893,56.460499999999996,12.93323L56.460499999999996,13.29557L48.794200000000004,13.29557C48.9086,14.70677,50.2245,15.7175,51.6166,15.7175C52.6845,15.7175,53.599900000000005,15.2026,54.286500000000004,14.28722L55.964600000000004,15.2217C54.858599999999996,16.613799999999998,53.332899999999995,17.4529,51.6738,17.472C48.450900000000004,17.472,46.582,15.05,46.582,12.60903C46.582,10.16803,48.450900000000004,7.746090000000001,51.6738,7.746090000000001ZM62.6841,7.746090000000001C64.61019999999999,7.746090000000001,67.4707,9.32893,67.4707,12.93323L67.4707,13.29557L59.8044,13.29557C59.9189,14.70677,61.234700000000004,15.7175,62.6269,15.7175C63.6948,15.7175,64.61019999999999,15.2026,65.2967,14.28722L66.9749,15.2217C65.8688,16.613799999999998,64.3432,17.4529,62.6841,17.472C59.461200000000005,17.472,57.5923,15.05,57.5923,12.60903C57.5923,10.16803,59.461200000000005,7.746090000000001,62.6841,7.746090000000001ZM69.1357,7.994009999999999L71.00460000000001,7.994009999999999L71.00460000000001,9.00474L71.0428,9.00474C71.36699999999999,8.24192,72.0535,7.746090000000001,72.8545,7.746090000000001C73.29310000000001,7.746090000000001,73.6745,7.86052,73.94149999999999,8.03215L73.2359,9.996400000000001C73.0452,9.84383,72.6828,9.72941,72.4921,9.72941C71.7675,9.72941,71.1191,10.28245,71.1191,11.12155L71.1191,17.2241L69.1357,17.2241L69.1357,7.994009999999999ZM97.6274,7.746090000000001C99.5535,7.746090000000001,102.4141,9.32893,102.4141,12.93323L102.4141,13.29557L94.7478,13.29557C94.8622,14.70677,96.1781,15.7175,97.5702,15.7175C98.6382,15.7175,99.5535,15.2026,100.2401,14.28722L101.9183,15.2217C100.8122,16.613799999999998,99.2866,17.4529,97.6274,17.472C94.4045,17.472,92.5356,15.05,92.5356,12.60903C92.5356,10.16803,94.4045,7.746090000000001,97.6274,7.746090000000001ZM107.4548,15.8319C106.425,15.8319,105.2617,15.2407,104.5561,14.47793L103.2021,15.851C104.4608,16.9189,105.7957,17.472,107.3595,17.472C110.1628,17.472,111.2689,15.7175,111.2689,14.3635C111.2689,12.99044,110.468,12.20856,108.8279,11.90343L106.8255,11.522020000000001C106.0627,11.38853,105.6241,11.10248,105.6241,10.54944C105.6241,9.80569,106.4632,9.386140000000001,107.3213,9.386140000000001C107.9697,9.386140000000001,108.8279,9.59592,109.8005,10.415939999999999L110.9256,9.023810000000001C109.667,8.1275,108.5418,7.746090000000001,107.2641,7.746090000000001C104.9566,7.746090000000001,103.6408,9.19544,103.6408,10.75921C103.6408,12.07506,104.3654,12.914159999999999,106.959,13.39092L108.0842,13.60069C108.8088,13.73418,109.2856,14.05838,109.2856,14.66863C109.2856,15.1835,108.5991,15.8319,107.4548,15.8319ZM120.7405,19.1311C119.806,19.1311,118.9478,18.5208,118.5664,17.9869L116.9455,19.1692C117.9943,20.466,119.5581,21,120.8358,21C123.334,21,125.6606,19.2455,125.6606,16.1943L125.6606,7.994009999999999L123.7917,7.994009999999999L123.7917,9.081019999999999L123.7536,9.081019999999999C123.1052,8.222850000000001,122.1135,7.746090000000001,120.8739,7.746090000000001C118.4139,7.746090000000001,116.1636,9.4815,116.1636,12.51368C116.1636,15.4314,118.2613,17.2241,120.6451,17.2241C121.9991,17.2241,122.9526,16.7282,123.7917,15.7938L123.7917,16.404C123.7917,17.8152,122.7619,19.1311,120.7405,19.1311ZM129.8432,7.994009999999999L127.8599,7.994009999999999L127.8599,17.2241L129.8432,17.2241L129.8432,12.055990000000001C129.8432,10.54944,130.8348,9.72941,132.1125,9.72941C133.4284,9.72941,134.3056,10.415939999999999,134.3056,12.09413L134.3056,17.2241L136.289,17.2241L136.289,11.65552C136.289,9.36707,134.6489,7.746090000000001,132.7037,7.746090000000001C131.4451,7.746090000000001,130.43439999999998,8.29913,129.8813,9.1573L129.8432,9.1573L129.8432,7.994009999999999ZM114.6122,7.99414L112.6289,7.99414L112.6289,17.2242L114.6122,17.2242L114.6122,7.99414ZM54.1336,11.655439999999999L48.7939,11.655439999999999C49.1181,10.28237,50.1479,9.50049,51.4066,9.50049C52.6652,9.50049,53.7141,10.24423,54.1336,11.655439999999999ZM65.1439,11.655439999999999L59.8042,11.655439999999999C60.1284,10.28237,61.1582,9.50049,62.416799999999995,9.50049C63.6755,9.50049,64.7243,10.24423,65.1439,11.655439999999999ZM100.0873,11.655439999999999L94.7476,11.655439999999999C95.0718,10.28237,96.10159999999999,9.50049,97.36019999999999,9.50049C98.6188,9.50049,99.6677,10.24423,100.0873,11.655439999999999ZM118.2612,12.475539999999999C118.2612,10.8927,119.5008,9.614989999999999,121.0455,9.614989999999999C122.5521,9.614989999999999,123.7916,10.8927,123.7916,12.49461C123.7916,14.07745,122.6474,15.3552,121.0455,15.3552C119.3673,15.3552,118.2612,14.07745,118.2612,12.475539999999999Z" fill-rule="evenodd" fill="#FFFFFF" fill-opacity="1"/></g></g></svg>