<svg xmlns="http://www.w3.org/2000/svg" xmlns:xlink="http://www.w3.org/1999/xlink" fill="none" version="1.1" width="27" height="26" viewBox="0 0 27 26"><defs><linearGradient x1="1.1284708976745605" y1="-0.052418604493141174" x2="0.023633798584342003" y2="-0.21325747668743134" id="master_svg0_3369_017165"><stop offset="0%" stop-color="#1C6EFF" stop-opacity="1"/><stop offset="27.114933729171753%" stop-color="#1C6EFF" stop-opacity="1"/><stop offset="100%" stop-color="#57C7FC" stop-opacity="1"/></linearGradient><linearGradient x1="7.549515720418117e-15" y1="1.1301857233047485" x2="1.349501609802246" y2="1.1301857233047485" id="master_svg1_3369_017172"><stop offset="0%" stop-color="#20CC94" stop-opacity="1"/><stop offset="100%" stop-color="#40E0AC" stop-opacity="1"/></linearGradient></defs><g style="mix-blend-mode:passthrough"><g style="mix-blend-mode:passthrough"><path d="M0,11.889673974761962C0,19.682613974761964,6.2917,26.000013974761963,14.0529,26.000013974761963C18.9853,26.000013974761963,23.3243,23.448413974761962,25.8319,19.588213974761963C25.8835,19.508813974761964,25.9262,19.424913974761964,25.9603,19.336813974761963C26.6206,18.22771397476196,27,16.93061397476196,27,15.544513974761962C27,14.969413974761963,26.9347,14.409703974761962,26.8111,13.872353974761962L26.7892,13.779873974761962L26.7662,13.687843974761963L26.7573,13.653773974761963L26.7401,13.589203974761963L26.7156,13.501503974761963L26.6967,13.436433974761963L26.6653,13.332873974761963L26.6396,13.252023974761963L26.6276,13.215243974761963C26.6022,13.138283974761963,26.5756,13.061883974761964,26.5478,12.986093974761962C26.5296,12.936563974761963,26.511,12.887293974761963,26.4918,12.838293974761964L26.4551,12.746453974761963L26.4192,12.659793974761964L26.3719,12.550173974761963L26.3345,12.466753974761962L26.2907,12.372433974761963L26.2524,12.292713974761963L26.226,12.239043974761962L26.1953,12.178143974761962C26.172,12.132423974761963,26.1482,12.086973974761964,26.124,12.041763974761963C26.1008,11.998513974761963,26.0772,11.955523974761963,26.0532,11.912803974761964L26.0187,11.852023974761963L25.9631,11.756793974761962L25.9038,11.658843974761963L25.8431,11.561843974761963L25.7899,11.479563974761962L25.7227,11.378893974761963L25.683,11.320983974761962L25.6424,11.262953974761963L25.5754,11.169893974761962L25.5325,11.111743974761964L25.488,11.052653974761963L25.4269,10.973553974761963C25.3919,10.928773974761963,25.3563,10.884403974761963,25.3202,10.840493974761962L25.2939,10.808583974761962L25.2212,10.722353974761962L25.1471,10.637053974761962L25.1002,10.584423974761963L25.0419,10.520323974761963L24.9767,10.450473974761962L24.9024,10.373003974761962L24.8298,10.299353974761964L24.7535,10.224143974761962L24.6934,10.166433974761963L24.6398,10.116023974761962L24.5642,10.046633974761964L24.5005,9.989543974761963C24.4544,9.948763974761963,24.4078,9.908563974761963,24.3607,9.868993974761963L24.35,9.859963974761964L24.2703,9.794003974761964L24.2002,9.737623974761963L24.124,9.677853974761963L24.0533,9.623843974761963C23.9993,9.583093974761962,23.9448,9.543073974761963,23.8896,9.503893974761963L23.806,9.445023974761963C23.7613,9.414113974761964,23.7162,9.383693974761963,23.6708,9.353803974761963L23.656,9.343953974761963L23.5882,9.299973974761963C22.4443,8.567063974761963,21.0855,8.142343974761964,19.628,8.142343974761964L6.00107,8.142423974761963C6.56835,11.401653974761963,9.40048,13.879003974761963,12.8089,13.879003974761963L19.364,13.879163974761964C19.6463,13.879173974761963,19.7939,14.216653974761963,19.5993,14.421183974761963L19.5533,14.465843974761963L19.5076,14.509593974761962C19.4625,14.552603974761963,19.4169,14.595213974761963,19.371,14.637383974761963C19.2884,14.713223974761963,19.2046,14.787703974761962,19.1195,14.860793974761963L19.0582,14.913013974761963L19.0101,14.953413974761963L18.9121,15.034213974761963L18.8547,15.080713974761963L18.7992,15.124813974761963L18.7331,15.176713974761963L18.6622,15.231313974761964L18.5426,15.321213974761962C18.4745,15.371713974761963,18.4057,15.421313974761963,18.3363,15.470013974761963L18.2671,15.518213974761963L18.1974,15.565913974761964L18.1412,15.603713974761963L18.0645,15.654513974761963L17.9752,15.712313974761964L17.889,15.766913974761962L17.8198,15.809913974761963L17.7439,15.856113974761962L17.6635,15.904013974761963L17.5897,15.947213974761963L17.4749,16.012713974761965C17.4116,16.048213974761964,17.3479,16.083113974761964,17.2838,16.117413974761963L17.2034,16.159813974761963L17.1296,16.198013974761963L17.046,16.24031397476196L16.9668,16.27951397476196L16.8962,16.313713974761963L16.8138,16.35271397476196L16.7399,16.387013974761963L16.6413,16.431613974761962L16.5334,16.478913974761962L16.4799,16.501813974761962L16.3558,16.553613974761962C16.2941,16.578913974761964,16.232,16.603613974761963,16.1696,16.627613974761964C16.1269,16.644113974761964,16.0842,16.660313974761962,16.0412,16.676213974761964L15.9595,16.706113974761962L15.867,16.738913974761964L15.7812,16.768513974761962L15.6906,16.798813974761963L15.578,16.835113974761963L15.528,16.850713974761963L15.4454,16.87601397476196L15.3757,16.896613974761962L15.2537,16.931513974761963L15.1848,16.95051397476196C15.1446,16.96141397476196,15.1044,16.97211397476196,15.064,16.982513974761964L14.977,17.004513974761963L14.892,17.025313974761964L14.7947,17.04811397476196L14.7131,17.066413974761964L14.632,17.083913974761963L14.5394,17.103013974761964L14.4434,17.121913974761963L14.3606,17.137413974761962L14.2859,17.150713974761963L14.1885,17.167313974761964L14.0861,17.183713974761964L13.9586,17.202513974761963C13.9027,17.210413974761963,13.8466,17.217913974761963,13.7903,17.22491397476196C13.7553,17.22921397476196,13.7202,17.233413974761962,13.6851,17.237413974761964L13.5612,17.250713974761965L13.4615,17.260313974761964L13.3664,17.268513974761962L13.3178,17.27241397476196L13.2242,17.279113974761962L13.1338,17.284913974761963L13.0436,17.289813974761962L12.9495,17.294013974761963L12.8499,17.297613974761965L12.7255,17.300713974761962L12.6294,17.302013974761962L12.533,17.30241397476196L12.3648,17.30111397476196C6.84387,17.21121397476196,2.3959,12.689463974761964,2.3959,7.124553974761962C2.3959,6.583783974761963,2.43791,6.052873974761963,2.51881,5.534911974761963L2.53155,5.455752974761963L2.52936,5.455082974761963C2.53789,5.420661974761963,2.54242,5.384651974761963,2.54242,5.347578974761963C2.54242,5.1025499747619625,2.3446,4.903913974761963,2.10056,4.903913974761963C1.93113,4.903913974761963,1.78397,4.999668074761963,1.70927,5.1395889747619625C0.61941,7.144643974761963,0,9.444533974761963,0,11.889673974761962Z" fill="url(#master_svg0_3369_017165)" fill-opacity="1"/></g><g style="mix-blend-mode:passthrough"><path d="M6.000945091247559,5.73591L6.018509691247559,5.63913C6.624759091247559,2.4281,9.43429509124756,0,12.80862509124756,0L26.53904509124756,0C26.53904509124756,3.16827,23.98104509124756,5.73665,20.82564509124756,5.73665L6.081668591247559,5.73665L6.000945091247559,5.73591ZM26.812445091247557,13.879L12.808745091247559,13.879C9.400355091247558,13.879,6.568227091247558,11.4016,6.000945091247559,8.14241L19.627845091247558,8.14233C21.085445091247557,8.14233,22.44414509124756,8.56705,23.588045091247558,9.29996L23.65584509124756,9.34394L23.670645091247557,9.35379C23.716045091247558,9.38368,23.76114509124756,9.4141,23.80584509124756,9.44501L23.88954509124756,9.50388C23.94464509124756,9.54306,23.99924509124756,9.58308,24.053245091247557,9.62383L24.12384509124756,9.67784L24.20004509124756,9.73761L24.27014509124756,9.79399L24.34984509124756,9.85995L24.36064509124756,9.86898C24.40774509124756,9.90855,24.454245091247557,9.94876,24.50034509124756,9.98953L24.564145091247557,10.0466L24.63964509124756,10.116L24.693245091247558,10.1664L24.75334509124756,10.2241L24.82964509124756,10.2993L24.902245091247558,10.373L24.97654509124756,10.4505L25.04174509124756,10.5203L25.10004509124756,10.5844L25.14694509124756,10.637L25.221145091247557,10.7223L25.29374509124756,10.8086L25.320145091247557,10.8405C25.35614509124756,10.8844,25.391745091247557,10.9288,25.426745091247557,10.9735L25.487845091247557,11.0526L25.53234509124756,11.1117L25.57534509124756,11.1699L25.64224509124756,11.2629L25.682845091247557,11.321L25.722645091247557,11.3789L25.789745091247557,11.4796L25.842945091247557,11.5618L25.903645091247558,11.6588L25.96294509124756,11.7568L26.01854509124756,11.852L26.053145091247558,11.9128C26.07714509124756,11.9555,26.100745091247557,11.9985,26.12384509124756,12.0418C26.14814509124756,12.087,26.171845091247558,12.1324,26.195145091247557,12.1781L26.22584509124756,12.239L26.25224509124756,12.2927L26.29054509124756,12.3724L26.33434509124756,12.4667L26.371845091247557,12.5502L26.419045091247558,12.6598L26.45504509124756,12.7464L26.49164509124756,12.8383C26.510845091247557,12.8873,26.52954509124756,12.9366,26.54764509124756,12.9861C26.57544509124756,13.0619,26.602045091247557,13.1383,26.62744509124756,13.2152L26.63954509124756,13.252L26.66524509124756,13.3329L26.696645091247557,13.4364L26.71554509124756,13.5015L26.73994509124756,13.5892L26.757245091247558,13.6538L26.76604509124756,13.6878L26.78914509124756,13.7799L26.810945091247557,13.8723L26.812445091247557,13.879Z" fill-rule="evenodd" fill="url(#master_svg1_3369_017172)" fill-opacity="1"/></g></g></svg>